<?xml version="1.0" encoding="UTF-8" standalone="no"?>
<svg
   xmlns:dc="http://purl.org/dc/elements/1.1/"
   xmlns:cc="http://creativecommons.org/ns#"
   xmlns:rdf="http://www.w3.org/1999/02/22-rdf-syntax-ns#"
   xmlns:svg="http://www.w3.org/2000/svg"
   xmlns="http://www.w3.org/2000/svg"
   xmlns:sodipodi="http://sodipodi.sourceforge.net/DTD/sodipodi-0.dtd"
   xmlns:inkscape="http://www.inkscape.org/namespaces/inkscape"
   id="a0f4c522-d0e8-404b-95f8-59a6be9d5f61"
   data-name="Layer 1"
   width="985.58672"
   height="661.15246"
   viewBox="0 0 985.58672 661.15246"
   version="1.1"
   sodipodi:docname="T.svg"
   inkscape:version="0.92.3 (2405546, 2018-03-11)">
  <metadata
     id="metadata107">
    <rdf:RDF>
      <cc:Work
         rdf:about="">
        <dc:format>image/svg+xml</dc:format>
        <dc:type
           rdf:resource="http://purl.org/dc/dcmitype/StillImage" />
      </cc:Work>
    </rdf:RDF>
  </metadata>
  <defs
     id="defs105" />
  <sodipodi:namedview
     pagecolor="#ffffff"
     bordercolor="#666666"
     borderopacity="1"
     objecttolerance="10"
     gridtolerance="10"
     guidetolerance="10"
     inkscape:pageopacity="0"
     inkscape:pageshadow="2"
     inkscape:window-width="1920"
     inkscape:window-height="951"
     id="namedview103"
     showgrid="false"
     inkscape:zoom="5.7112394"
     inkscape:cx="518.41349"
     inkscape:cy="455.53708"
     inkscape:window-x="0"
     inkscape:window-y="27"
     inkscape:window-maximized="1"
     inkscape:current-layer="a0f4c522-d0e8-404b-95f8-59a6be9d5f61" />
  <title
     id="title2">book_reading</title>
  <rect
     x="27.52452"
     y="640.30491"
     width="929"
     height="2"
     fill="#3f3d56"
     id="rect4" />
  <rect
     x="634.23122"
     y="123.65246"
     width="1.99988"
     height="928.99999"
     transform="translate(-261.09314 815.30387) rotate(-67.07803)"
     fill="#3f3d56"
     id="rect6" />
  <rect
     x="27.52452"
     y="277.30491"
     width="929"
     height="2"
     fill="#3f3d56"
     id="rect8" />
  <path
     d="M937.73116,449.65246a322.06753,322.06753,0,0,1-93.73,228.11q-4.93506,4.965-10.09,9.7-6.21,5.73-12.74,11.11c-.83.69-1.66,1.37-2.5,2.04a313.73111,313.73111,0,0,1-55.56,36.03c-1.17.59-2.34,1.18-3.52,1.76-1.87.92-3.76,1.82-5.65,2.7a311.18017,311.18017,0,0,1-223.25,15.15c-129.07-40.06-222.96-162.17-222.96-306.6,0-177.01,141.03-320.5,315-320.5S937.73116,272.64245,937.73116,449.65246Z"
     transform="translate(-107.20664 -128.84754)"
     fill="#b485d6"
     id="path10" />
  <path
     d="M692.86575,382.41884l.25017-.00978-.98654-2.166a60.49185,60.49185,0,0,0-4.04939-8.8911L659.14532,307.8217a11.44275,11.44275,0,0,0-10.60414-6.6983l-36.64368.61046a11.44267,11.44267,0,0,0-10.666,7.82629l-23.03631,69.18794a60.396,60.396,0,0,0-1.97059,5.9183l-.78211,2.34909.18367-.00718a60.852,60.852,0,1,0,117.23963-4.58946Z"
     transform="translate(-107.20664 -128.84754)"
     fill="#3f3d56"
     id="path12" />
  <rect
     x="587.4201"
     y="348.24504"
     width="64.07988"
     height="1.32275"
     transform="translate(57.5742 766.62382) rotate(-79.63351)"
     fill="#b485d6"
     id="rect14" />
  <rect
     x="643.92938"
     y="316.44781"
     width="1.32275"
     height="64.07988"
     transform="translate(-166.52235 16.03118) rotate(-12.26435)"
     fill="#b485d6"
     id="rect16" />
  <path
     d="M607.90381,270.709l46.95475-.78223a1.32285,1.32285,0,0,1,.04406,2.64534l-46.95474.78223a1.32285,1.32285,0,1,1-.04407-2.64534Z"
     transform="translate(-107.20664 -128.84754)"
     fill="#3f3d56"
     id="path18" />
  <path
     d="M608.39973,280.62355l46.95475-.78223a1.32285,1.32285,0,1,1,.04407,2.64534l-46.95475.78223a1.32285,1.32285,0,0,1-.04407-2.64534Z"
     transform="translate(-107.20664 -128.84754)"
     fill="#3f3d56"
     id="path20" />
  <path
     d="M608.89566,290.53806l46.95475-.78223a1.32285,1.32285,0,0,1,.04407,2.64534l-46.95475.78223a1.32285,1.32285,0,0,1-.04407-2.64534Z"
     transform="translate(-107.20664 -128.84754)"
     fill="#3f3d56"
     id="path22" />
  <path
     d="M631.224,260.88358c-9.31374.15516-16.77755,5.47176-16.67088,11.875l33.72806-.56188C648.17452,265.79345,640.53775,260.72842,631.224,260.88358Z"
     transform="translate(-107.20664 -128.84754)"
     fill="#3f3d56"
     id="path24" />
  <path
     d="M636.41386,389.61354a8.14933,8.14933,0,0,1,4.94589,2.11341c.34849.2891.69141.59218,1.0353.89589a10.33034,10.33034,0,0,0,3.89692,2.54982c3.23184.88191,6.42224-1.67357,9.11517-4.28989l.92216.94849c-2.96056,2.87725-6.50869,5.67481-10.38559,4.61791a11.46391,11.46391,0,0,1-4.42461-2.835c-.33341-.29484-.66616-.58873-1.00385-.86929-1.1051-.91669-3.24-2.34305-5.138-1.6034a6.44192,6.44192,0,0,0-2.05951,1.58861,12.31293,12.31293,0,0,1-1.4295,1.2871,6.47841,6.47841,0,0,1-7.17883.21359,12.7955,12.7955,0,0,1-1.12388-.84242,4.68807,4.68807,0,0,0-2.12357-1.20916c-1.1241-.15764-2.14565.64493-3.22844,1.49342a6.8402,6.8402,0,0,1-3.743,1.85957c-.04776.00241-.09618.00418-.144.005-2.6363.04392-4.30818-2.59271-5.34225-4.59719l1.176-.60617c1.40525,2.72473,2.76,3.96706,4.24042,3.87715a5.81555,5.81555,0,0,0,2.99639-1.579c1.25176-.98212,2.54755-1.9976,4.22722-1.763a5.72061,5.72061,0,0,1,2.77362,1.491,11.65548,11.65548,0,0,0,1.00619.75749,5.19806,5.19806,0,0,0,5.68469-.169,11.16589,11.16589,0,0,0,1.27346-1.15335,7.51531,7.51531,0,0,1,2.51388-1.88593A4.34872,4.34872,0,0,1,636.41386,389.61354Z"
     transform="translate(-107.20664 -128.84754)"
     fill="#b485d6"
     id="path26" />
  <rect
     x="524.13395"
     width="1.37481"
     height="131.98203"
     fill="#3f3d56"
     id="rect28" />
  <path
     d="M1047.62723,357.51779c-8.38218,30.98558-37.093,50.17572-37.093,50.17572s-15.12066-31.04739-6.73848-62.033,37.093-50.17573,37.093-50.17573S1056.00942,326.53221,1047.62723,357.51779Z"
     transform="translate(-107.20664 -128.84754)"
     fill="#b485d6"
     id="path30" />
  <path
     d="M971.37277,357.51779c8.38218,30.98558,37.093,50.17572,37.093,50.17572s15.12066-31.04739,6.73848-62.033-37.093-50.17573-37.093-50.17573S962.99058,326.53221,971.37277,357.51779Z"
     transform="translate(-107.20664 -128.84754)"
     fill="#b485d6"
     id="path32" />
  <path
     d="M983.68979,350.85866C1006.69062,373.249,1009.5,407.66825,1009.5,407.66825s-34.48232-1.88275-57.48315-24.27313-25.81021-56.80959-25.81021-56.80959S960.689,328.46828,983.68979,350.85866Z"
     transform="translate(-107.20664 -128.84754)"
     fill="#3f3d56"
     id="path34" />
  <path
     d="M1035.31021,350.85866C1012.30938,373.249,1009.5,407.66825,1009.5,407.66825s34.48232-1.88275,57.48315-24.27313,25.81021-56.80959,25.81021-56.80959S1058.311,328.46828,1035.31021,350.85866Z"
     transform="translate(-107.20664 -128.84754)"
     fill="#3f3d56"
     id="path36" />
  <path
     d="M228.62723,719.51779c-8.38218,30.98558-37.093,50.17572-37.093,50.17572s-15.12066-31.04739-6.73848-62.033,37.093-50.17573,37.093-50.17573S237.00942,688.53221,228.62723,719.51779Z"
     transform="translate(-107.20664 -128.84754)"
     fill="#b485d6"
     id="path38" />
  <path
     d="M152.37277,719.51779c8.38218,30.98558,37.093,50.17572,37.093,50.17572s15.12066-31.04739,6.73848-62.033-37.093-50.17573-37.093-50.17573S143.99058,688.53221,152.37277,719.51779Z"
     transform="translate(-107.20664 -128.84754)"
     fill="#b485d6"
     id="path40" />
  <path
     d="M164.68979,712.85866C187.69062,735.249,190.5,769.66825,190.5,769.66825s-34.48232-1.88275-57.48315-24.27313-25.81021-56.80959-25.81021-56.80959S141.689,690.46828,164.68979,712.85866Z"
     transform="translate(-107.20664 -128.84754)"
     fill="#3f3d56"
     id="path42" />
  <path
     d="M216.31021,712.85866C193.30938,735.249,190.5,769.66825,190.5,769.66825s34.48232-1.88275,57.48315-24.27313,25.81021-56.80959,25.81021-56.80959S239.311,690.46828,216.31021,712.85866Z"
     transform="translate(-107.20664 -128.84754)"
     fill="#3f3d56"
     id="path44" />
  <circle
     cx="670.34203"
     cy="285.18876"
     r="19.23438"
     fill="#2f2e41"
     id="circle46" />
  <path
     d="M756.9404,405.793A19.234,19.234,0,0,1,774.114,386.67232a19.23441,19.23441,0,1,0,0,38.24135A19.234,19.234,0,0,1,756.9404,405.793Z"
     transform="translate(-107.20664 -128.84754)"
     fill="#2f2e41"
     id="path48" />
  <path
     d="M758.31428,414.0363s-2.98726,13.73885,15.67993,19.23439Z"
     transform="translate(-107.20664 -128.84754)"
     fill="#b485d6"
     id="path50" />
  <circle
     cx="678.29697"
     cy="351.26505"
     r="64.57257"
     fill="#2f2e41"
     id="circle52" />
  <path
     d="M821.17117,698.57244c-.83.69-1.66,1.37-2.5,2.04a313.73111,313.73111,0,0,1-55.56,36.03c-1.17.59-2.34,1.18-3.52,1.76-1.87.92-3.76,1.82-5.65,2.7l-33.1-11.03.38-7.93v-.03l1.44-30.24.49-10.34Z"
     transform="translate(-107.20664 -128.84754)"
     fill="#a0616a"
     id="path54" />
  <path
     d="M759.59115,738.40246c-1.87.92-3.76,1.82-5.65,2.7a306.938,306.938,0,0,1-39.91,15.37,2.22371,2.22371,0,0,1-.12-.62l6.93-33.87006.38.16Z"
     transform="translate(-107.20664 -128.84754)"
     fill="#2f2e41"
     id="path56" />
  <circle
     cx="662.17842"
     cy="377.01184"
     r="42.76177"
     fill="#a0616a"
     id="circle58" />
  <path
     d="M804.05677,508.17083s6.93434,34.67171,19.6473,42.76178l-70.49914,83.2121-26.58164-25.42592,19.6473-34.67171s21.95875-12.713,15.02441-30.04881Z"
     transform="translate(-107.20664 -128.84754)"
     fill="#a0616a"
     id="path60" />
  <path
     d="M887.72115,623.00243a320.87478,320.87478,0,0,1-43.72,54.76c-.71-15.5-2.25-28.28-5.27-32.06a.031.031,0,0,1-.02-.01l-36.97-11.55s8.09-76.28,27.74-79.74c0,0,2.85.57995,7.28,1.92,14.28,4.3,44.93994,16.42,49.35,41.99A141.92617,141.92617,0,0,1,887.72115,623.00243Z"
     transform="translate(-107.20664 -128.84754)"
     fill="#a0616a"
     id="path62" />
  <path
     d="M746.27059,574.04708s-34.67171-1.15572-56.63046,26.58164-75.122,48.5404-75.122,48.5404L481.60988,701.17668s-24.2702-42.76177-39.2946-27.73737,27.73736,53.16329,47.38466,48.5404,138.68684-40.45033,138.68684-40.45033l94.76934-42.76178Z"
     transform="translate(-107.20664 -128.84754)"
     fill="#a0616a"
     id="path64" />
  <path
     d="M838.73116,645.70244l-4.82,41.76q-6.21,5.73-12.74,11.11c-.83.69-1.66,1.37-2.5,2.04-33.37-10.23-85.66-9.09-96.01-8.74-1.18.03-1.82.06-1.82.06l-1.15-24.27c-11.09-3.69-14.73005-11.76-14.83-20.64-.17-16.1,11.36-34.84,11.36-34.84,2.07-2.07,17.54-31.4,20.74-37.48.37-.71.58-1.1.58-1.1l13.87-3.46s-.04.11-.12.31c-1.24,3.47-12.02,34.86,6.54,35.95,18.26,1.07995,57.98-50.2,63.45-57.39.41-.54.63-.83.63-.83l15.03,8.09c-.06.02-.12.03-.18.05-9.18005,2.55-17.68005,24.66-17.68005,24.66-23.97,42.24,18.58,64.18006,19.63,64.71A.031.031,0,0,0,838.73116,645.70244Z"
     transform="translate(-107.20664 -128.84754)"
     fill="#d0cde1"
     id="path66" />
  <path
     d="M771.70821,455.66576c-22.76326,0-41.21653,10.76441-41.21653,24.043,0,5.9414,3.70925,11.37145,9.832,15.56639l7.93463-5.7492-2.15776,9.00681c.89532.41492,1.80951.8165,2.763,1.18764l11.85353-13.82916v16.98916a69.19156,69.19156,0,0,0,10.99107.87134c22.76327,0,41.21654-10.76441,41.21654-24.043S794.47148,455.66576,771.70821,455.66576Z"
     transform="translate(-107.20664 -128.84754)"
     fill="#2f2e41"
     id="path68" />
  <circle
     cx="748.93123"
     cy="315.23757"
     r="19.23438"
     fill="#2f2e41"
     id="circle70" />
  <path
     d="M835.52961,435.84181a19.234,19.234,0,0,1,17.17355-19.12068,19.42935,19.42935,0,0,0-2.06082-.1137,19.2344,19.2344,0,1,0,2.06082,38.35505A19.234,19.234,0,0,1,835.52961,435.84181Z"
     transform="translate(-107.20664 -128.84754)"
     fill="#2f2e41"
     id="path72" />
  <path
     d="M836.90349,444.08512s-2.98727,13.73884,15.67992,19.23438Z"
     transform="translate(-107.20664 -128.84754)"
     fill="#b485d6"
     id="path74" />
  <ellipse
     cx="706.67378"
     cy="373.54467"
     rx="3.33876"
     ry="7.5122"
     fill="#a0616a"
     id="ellipse76" />
  <path
     d="M445.388,531.45408l-50.67715,12.27814-.16511.03931-5.50879,4.98725-1.58554,1.43356-3.39909-.61589-6.01721-1.08759,4.19317-14.152.78622-26.99357-2.8828-16.51063,15.98648-11.00709S427.3049,477.99108,445.388,531.45408Z"
     transform="translate(-107.20664 -128.84754)"
     fill="#d0cde1"
     id="path78" />
  <path
     d="M394.71082,543.73222c-.68664,1.465.75215.49794-.03408,2.00487l-7.33805,2.35866-3.2864,1.4807-6.01721-1.08759,4.19317-14.152.78622-26.99357-2.8828-16.51063,15.98648-11.00709S413.27609,504.12505,394.71082,543.73222Z"
     transform="translate(-107.20664 -128.84754)"
     opacity="0.1"
     id="path80" />
  <path
     d="M505.14073,492.6672s-66.56667,30.92467-93.56024,35.642-24.63491,31.71089-24.63491,31.71089L538.162,536.43348S532.92052,512.06064,505.14073,492.6672Z"
     transform="translate(-107.20664 -128.84754)"
     fill="#d0cde1"
     id="path82" />
  <path
     d="M376.72471,487.42573s11.53123,28.04187-1.31037,62.89764l14.93819,6.81391,5.76562-6.81391.131-.65518-15.85545-1.44141s13.10367-35.11785,2.35866-59.49068C382.7524,488.7361,380.39374,483.49463,376.72471,487.42573Z"
     transform="translate(-107.20664 -128.84754)"
     fill="#b485d6"
     id="path84" />
  <path
     d="M596.60438,695.25C537.63784,682.14635,482.73344,709.271,482.73344,709.271l-.14938-.13366-21.86479-19.52185-85.436-139.4231,20.83484.131c57.91824-34.5937,139.4231-29.87638,139.4231-29.87638C570.6591,560.28217,596.60438,695.25,596.60438,695.25Z"
     transform="translate(-107.20664 -128.84754)"
     fill="#3f3d56"
     id="path86" />
  <path
     d="M482.58406,709.13729l-21.86479-19.52185-85.436-139.4231,20.83484.131S479.15876,659.99851,482.58406,709.13729Z"
     transform="translate(-107.20664 -128.84754)"
     opacity="0.1"
     id="path88" />
  <ellipse
     cx="485.87832"
     cy="579.80664"
     rx="33.80748"
     ry="21.49003"
     transform="translate(-255.86806 39.11836) rotate(-17.05185)"
     fill="#d0cde1"
     id="ellipse90" />
  <circle
     cx="27.79336"
     cy="277.15246"
     r="19"
     fill="#3f3d56"
     id="circle92" />
  <circle
     cx="955.79336"
     cy="642.15246"
     r="19"
     fill="#3f3d56"
     id="circle94" />
  <circle
     cx="110.79336"
     cy="279.15246"
     r="15"
     fill="#b485d6"
     id="circle96" />
  <circle
     cx="955.79336"
     cy="279.15246"
     r="15"
     fill="#b485d6"
     id="circle98" />
  <circle
     cx="27.79336"
     cy="640.15246"
     r="15"
     fill="#b485d6"
     id="circle100" />
  <path
     style="fill:#ffffff;fill-opacity:1;stroke-width:0.9904775"
     d="m 513.07162,330.68475 c -10.27951,-2.49228 -19.35824,-7.8856 -28.06147,-16.67023 -12.96366,-13.08489 -17.73797,-25.38404 -17.10061,-44.053 0.35801,-10.48627 0.42758,-10.74487 13.5876,-50.50445 7.98035,-24.11054 14.07116,-40.94473 15.35382,-42.43591 2.96285,-3.44452 7.96812,-4.17317 29.01225,-4.22352 18.85266,-0.0451 21.90174,0.49444 24.40751,4.31905 3.22904,4.92854 35.19598,76.86551 36.33615,81.76925 2.88985,12.42884 0.92672,28.00059 -5.06421,40.16992 -7.53936,15.3146 -23.1679,27.7587 -39.78167,31.67583 -7.64676,1.80293 -21.15061,1.78083 -28.68937,-0.0469 z m 33.58299,-65.23634 c 3.48915,-3.00312 2.34697,-4.5235 -1.26428,-1.68289 -3.50706,2.75865 -6.5411,2.64423 -10.13797,-0.38233 -3.64141,-3.06404 -7.2734,-3.14991 -11.17649,-0.26424 -2.90012,2.14416 -3.0835,2.15934 -5.98302,0.49524 -3.74131,-2.14721 -4.87957,-2.14504 -8.72518,0.0166 -3.03267,1.7047 -3.11347,1.6943 -4.89093,-0.62997 -2.2069,-2.88582 -3.60173,-1.29676 -1.49806,1.70665 1.78521,2.54874 4.54407,2.73054 8.24658,0.54341 2.49127,-1.47163 2.95306,-1.47163 5.79888,0 4.0174,2.07748 5.36412,2.01633 8.41309,-0.38199 3.31584,-2.60824 5.26648,-2.49877 8.82466,0.49524 3.85158,3.24089 8.68702,3.27377 12.39272,0.0843 z m -38.82033,-15.68428 c 1.5332,-6.40275 11.10576,-60.72966 10.76528,-61.09596 -1.25235,-1.34729 -2.58732,4.2155 -7.23392,30.14354 -2.8312,15.79811 -5.38959,29.7267 -5.68531,30.95242 -0.30793,1.27631 -0.0766,2.22857 0.54131,2.22857 0.59344,0 1.31912,-1.00286 1.61264,-2.22857 z m 37.14487,0.49524 c 0.009,-2.41533 -13.25024,-61.32922 -13.97653,-62.10294 -1.70298,-1.81419 -0.85331,3.16051 5.55483,32.52262 3.54095,16.22469 6.4381,29.68478 6.4381,29.91131 0,0.22652 0.44572,0.41187 0.99048,0.41187 0.54476,0 0.99167,-0.33429 0.99312,-0.74286 z"
     id="path914"
     inkscape:connector-curvature="0" />
  <path
     style="fill:#ffffff;fill-opacity:1;stroke-width:0.9904775"
     d="m 499.90978,143.04018 c 0.33668,-0.54477 2.25727,-0.9933 4.26798,-0.99675 2.96692,-0.005 3.95377,-0.53014 5.23685,-2.78629 2.30994,-4.06176 8.16567,-6.55755 15.25711,-6.50277 6.81195,0.0526 11.32497,2.00436 14.46957,6.25766 1.78918,2.42 2.63024,2.79029 5.33926,2.35068 1.76855,-0.287 3.48165,-0.0913 3.8069,0.43501 0.84317,1.36429 -11.50705,2.23293 -31.74745,2.23293 -11.24269,0 -17.02937,-0.34464 -16.63022,-0.99047 z"
     id="path916"
     inkscape:connector-curvature="0" />
  <path
     style="fill:#ffffff;fill-opacity:1;stroke-width:0.17509334"
     d="M 524.15655,65.995954 V 0.16085681 h 0.61283 0.61282 V 65.995954 131.83105 h -0.61282 -0.61283 z"
     id="path920"
     inkscape:connector-curvature="0" />
  <path
     style="fill:#ffffff;fill-opacity:1;stroke-width:0.17509334"
     d="m 500.74346,154.22701 c -0.84402,-0.31222 -0.97846,-1.5664 -0.22451,-2.09442 0.40492,-0.28358 2.21771,-0.33533 24.18732,-0.69042 17.66245,-0.28547 23.84378,-0.33346 24.11705,-0.18721 0.69134,0.37 0.70526,1.74657 0.0214,2.11259 -0.22685,0.12141 -7.38899,0.30113 -20.79026,0.5217 -11.24431,0.18506 -21.90446,0.36813 -23.68922,0.4068 -1.78477,0.0387 -3.41455,0.008 -3.62174,-0.069 z"
     id="path922"
     inkscape:connector-curvature="0" />
  <path
     style="fill:#ffffff;fill-opacity:1;stroke-width:0.17509334"
     d="m 517.11218,164.09642 c 0.3147,-0.039 0.78745,-0.0382 1.05056,0.002 0.2631,0.04 0.006,0.0718 -0.57219,0.0709 -0.57781,-9.8e-4 -0.79308,-0.0337 -0.47837,-0.0726 z"
     id="path924"
     inkscape:connector-curvature="0" />
  <path
     style="fill:#ffffff;fill-opacity:1;stroke-width:0.17509334"
     d="m 500.86913,163.87313 c -0.70505,-0.70505 -0.2116,-2.09921 0.74415,-2.10246 0.21668,-7.3e-4 9.41564,-0.15602 20.44215,-0.34507 11.0265,-0.18905 21.6598,-0.35448 23.62955,-0.36761 3.53052,-0.0235 3.58596,-0.0182 3.90466,0.37538 0.43875,0.54183 0.33642,1.35824 -0.21965,1.75243 -0.40679,0.28838 -2.03421,0.33627 -23.02477,0.67757 -27.49552,0.44707 -25.03972,0.44613 -25.47609,0.01 z"
     id="path926"
     inkscape:connector-curvature="0" />
</svg>
