<?xml version="1.0" encoding="UTF-8" standalone="no"?>
<svg
   xmlns:dc="http://purl.org/dc/elements/1.1/"
   xmlns:cc="http://creativecommons.org/ns#"
   xmlns:rdf="http://www.w3.org/1999/02/22-rdf-syntax-ns#"
   xmlns:svg="http://www.w3.org/2000/svg"
   xmlns="http://www.w3.org/2000/svg"
   xmlns:sodipodi="http://sodipodi.sourceforge.net/DTD/sodipodi-0.dtd"
   xmlns:inkscape="http://www.inkscape.org/namespaces/inkscape"
   id="a0f4c522-d0e8-404b-95f8-59a6be9d5f61"
   data-name="Layer 1"
   width="985.58672"
   height="661.15246"
   viewBox="0 0 985.58672 661.15246"
   version="1.1"
   sodipodi:docname="undraw_book_reading_kx9s.svg"
   inkscape:version="0.92.3 (2405546, 2018-03-11)">
  <metadata
     id="metadata107">
    <rdf:RDF>
      <cc:Work
         rdf:about="">
        <dc:format>image/svg+xml</dc:format>
        <dc:type
           rdf:resource="http://purl.org/dc/dcmitype/StillImage" />
      </cc:Work>
    </rdf:RDF>
  </metadata>
  <defs
     id="defs105" />
  <sodipodi:namedview
     pagecolor="#ffffff"
     bordercolor="#666666"
     borderopacity="1"
     objecttolerance="10"
     gridtolerance="10"
     guidetolerance="10"
     inkscape:pageopacity="0"
     inkscape:pageshadow="2"
     inkscape:window-width="1920"
     inkscape:window-height="951"
     id="namedview103"
     showgrid="false"
     inkscape:zoom="2.8556197"
     inkscape:cx="451.60443"
     inkscape:cy="402.08643"
     inkscape:window-x="0"
     inkscape:window-y="27"
     inkscape:window-maximized="1"
     inkscape:current-layer="a0f4c522-d0e8-404b-95f8-59a6be9d5f61" />
  <title
     id="title2">book_reading</title>
  <rect
     x="27.52452"
     y="640.30491"
     width="929"
     height="2"
     fill="#3f3d56"
     id="rect4" />
  <rect
     x="634.23122"
     y="123.65246"
     width="1.99988"
     height="928.99999"
     transform="translate(-261.09314 815.30387) rotate(-67.07803)"
     fill="#3f3d56"
     id="rect6" />
  <rect
     x="27.52452"
     y="277.30491"
     width="929"
     height="2"
     fill="#3f3d56"
     id="rect8" />
  <path
     d="M937.73116,449.65246a322.06753,322.06753,0,0,1-93.73,228.11q-4.93506,4.965-10.09,9.7-6.21,5.73-12.74,11.11c-.83.69-1.66,1.37-2.5,2.04a313.73111,313.73111,0,0,1-55.56,36.03c-1.17.59-2.34,1.18-3.52,1.76-1.87.92-3.76,1.82-5.65,2.7a311.18017,311.18017,0,0,1-223.25,15.15c-129.07-40.06-222.96-162.17-222.96-306.6,0-177.01,141.03-320.5,315-320.5S937.73116,272.64245,937.73116,449.65246Z"
     transform="translate(-107.20664 -128.84754)"
     fill="#b485d6"
     id="path10" />
  <path
     d="M692.86575,382.41884l.25017-.00978-.98654-2.166a60.49185,60.49185,0,0,0-4.04939-8.8911L659.14532,307.8217a11.44275,11.44275,0,0,0-10.60414-6.6983l-36.64368.61046a11.44267,11.44267,0,0,0-10.666,7.82629l-23.03631,69.18794a60.396,60.396,0,0,0-1.97059,5.9183l-.78211,2.34909.18367-.00718a60.852,60.852,0,1,0,117.23963-4.58946Z"
     transform="translate(-107.20664 -128.84754)"
     fill="#3f3d56"
     id="path12" />
  <rect
     x="587.4201"
     y="348.24504"
     width="64.07988"
     height="1.32275"
     transform="translate(57.5742 766.62382) rotate(-79.63351)"
     fill="#b485d6"
     id="rect14" />
  <rect
     x="643.92938"
     y="316.44781"
     width="1.32275"
     height="64.07988"
     transform="translate(-166.52235 16.03118) rotate(-12.26435)"
     fill="#b485d6"
     id="rect16" />
  <path
     d="M607.90381,270.709l46.95475-.78223a1.32285,1.32285,0,0,1,.04406,2.64534l-46.95474.78223a1.32285,1.32285,0,1,1-.04407-2.64534Z"
     transform="translate(-107.20664 -128.84754)"
     fill="#3f3d56"
     id="path18" />
  <path
     d="M608.39973,280.62355l46.95475-.78223a1.32285,1.32285,0,1,1,.04407,2.64534l-46.95475.78223a1.32285,1.32285,0,0,1-.04407-2.64534Z"
     transform="translate(-107.20664 -128.84754)"
     fill="#3f3d56"
     id="path20" />
  <path
     d="M608.89566,290.53806l46.95475-.78223a1.32285,1.32285,0,0,1,.04407,2.64534l-46.95475.78223a1.32285,1.32285,0,0,1-.04407-2.64534Z"
     transform="translate(-107.20664 -128.84754)"
     fill="#3f3d56"
     id="path22" />
  <path
     d="M631.224,260.88358c-9.31374.15516-16.77755,5.47176-16.67088,11.875l33.72806-.56188C648.17452,265.79345,640.53775,260.72842,631.224,260.88358Z"
     transform="translate(-107.20664 -128.84754)"
     fill="#3f3d56"
     id="path24" />
  <path
     d="M636.41386,389.61354a8.14933,8.14933,0,0,1,4.94589,2.11341c.34849.2891.69141.59218,1.0353.89589a10.33034,10.33034,0,0,0,3.89692,2.54982c3.23184.88191,6.42224-1.67357,9.11517-4.28989l.92216.94849c-2.96056,2.87725-6.50869,5.67481-10.38559,4.61791a11.46391,11.46391,0,0,1-4.42461-2.835c-.33341-.29484-.66616-.58873-1.00385-.86929-1.1051-.91669-3.24-2.34305-5.138-1.6034a6.44192,6.44192,0,0,0-2.05951,1.58861,12.31293,12.31293,0,0,1-1.4295,1.2871,6.47841,6.47841,0,0,1-7.17883.21359,12.7955,12.7955,0,0,1-1.12388-.84242,4.68807,4.68807,0,0,0-2.12357-1.20916c-1.1241-.15764-2.14565.64493-3.22844,1.49342a6.8402,6.8402,0,0,1-3.743,1.85957c-.04776.00241-.09618.00418-.144.005-2.6363.04392-4.30818-2.59271-5.34225-4.59719l1.176-.60617c1.40525,2.72473,2.76,3.96706,4.24042,3.87715a5.81555,5.81555,0,0,0,2.99639-1.579c1.25176-.98212,2.54755-1.9976,4.22722-1.763a5.72061,5.72061,0,0,1,2.77362,1.491,11.65548,11.65548,0,0,0,1.00619.75749,5.19806,5.19806,0,0,0,5.68469-.169,11.16589,11.16589,0,0,0,1.27346-1.15335,7.51531,7.51531,0,0,1,2.51388-1.88593A4.34872,4.34872,0,0,1,636.41386,389.61354Z"
     transform="translate(-107.20664 -128.84754)"
     fill="#b485d6"
     id="path26" />
  <rect
     x="524.13395"
     width="1.37481"
     height="131.98203"
     fill="#3f3d56"
     id="rect28" />
  <path
     d="M1047.62723,357.51779c-8.38218,30.98558-37.093,50.17572-37.093,50.17572s-15.12066-31.04739-6.73848-62.033,37.093-50.17573,37.093-50.17573S1056.00942,326.53221,1047.62723,357.51779Z"
     transform="translate(-107.20664 -128.84754)"
     fill="#b485d6"
     id="path30" />
  <path
     d="M971.37277,357.51779c8.38218,30.98558,37.093,50.17572,37.093,50.17572s15.12066-31.04739,6.73848-62.033-37.093-50.17573-37.093-50.17573S962.99058,326.53221,971.37277,357.51779Z"
     transform="translate(-107.20664 -128.84754)"
     fill="#b485d6"
     id="path32" />
  <path
     d="M983.68979,350.85866C1006.69062,373.249,1009.5,407.66825,1009.5,407.66825s-34.48232-1.88275-57.48315-24.27313-25.81021-56.80959-25.81021-56.80959S960.689,328.46828,983.68979,350.85866Z"
     transform="translate(-107.20664 -128.84754)"
     fill="#3f3d56"
     id="path34" />
  <path
     d="M1035.31021,350.85866C1012.30938,373.249,1009.5,407.66825,1009.5,407.66825s34.48232-1.88275,57.48315-24.27313,25.81021-56.80959,25.81021-56.80959S1058.311,328.46828,1035.31021,350.85866Z"
     transform="translate(-107.20664 -128.84754)"
     fill="#3f3d56"
     id="path36" />
  <path
     d="M228.62723,719.51779c-8.38218,30.98558-37.093,50.17572-37.093,50.17572s-15.12066-31.04739-6.73848-62.033,37.093-50.17573,37.093-50.17573S237.00942,688.53221,228.62723,719.51779Z"
     transform="translate(-107.20664 -128.84754)"
     fill="#b485d6"
     id="path38" />
  <path
     d="M152.37277,719.51779c8.38218,30.98558,37.093,50.17572,37.093,50.17572s15.12066-31.04739,6.73848-62.033-37.093-50.17573-37.093-50.17573S143.99058,688.53221,152.37277,719.51779Z"
     transform="translate(-107.20664 -128.84754)"
     fill="#b485d6"
     id="path40" />
  <path
     d="M164.68979,712.85866C187.69062,735.249,190.5,769.66825,190.5,769.66825s-34.48232-1.88275-57.48315-24.27313-25.81021-56.80959-25.81021-56.80959S141.689,690.46828,164.68979,712.85866Z"
     transform="translate(-107.20664 -128.84754)"
     fill="#3f3d56"
     id="path42" />
  <path
     d="M216.31021,712.85866C193.30938,735.249,190.5,769.66825,190.5,769.66825s34.48232-1.88275,57.48315-24.27313,25.81021-56.80959,25.81021-56.80959S239.311,690.46828,216.31021,712.85866Z"
     transform="translate(-107.20664 -128.84754)"
     fill="#3f3d56"
     id="path44" />
  <circle
     cx="670.34203"
     cy="285.18876"
     r="19.23438"
     fill="#2f2e41"
     id="circle46" />
  <path
     d="M756.9404,405.793A19.234,19.234,0,0,1,774.114,386.67232a19.23441,19.23441,0,1,0,0,38.24135A19.234,19.234,0,0,1,756.9404,405.793Z"
     transform="translate(-107.20664 -128.84754)"
     fill="#2f2e41"
     id="path48" />
  <path
     d="M758.31428,414.0363s-2.98726,13.73885,15.67993,19.23439Z"
     transform="translate(-107.20664 -128.84754)"
     fill="#b485d6"
     id="path50" />
  <circle
     cx="678.29697"
     cy="351.26505"
     r="64.57257"
     fill="#2f2e41"
     id="circle52" />
  <path
     d="M821.17117,698.57244c-.83.69-1.66,1.37-2.5,2.04a313.73111,313.73111,0,0,1-55.56,36.03c-1.17.59-2.34,1.18-3.52,1.76-1.87.92-3.76,1.82-5.65,2.7l-33.1-11.03.38-7.93v-.03l1.44-30.24.49-10.34Z"
     transform="translate(-107.20664 -128.84754)"
     fill="#a0616a"
     id="path54" />
  <path
     d="M759.59115,738.40246c-1.87.92-3.76,1.82-5.65,2.7a306.938,306.938,0,0,1-39.91,15.37,2.22371,2.22371,0,0,1-.12-.62l6.93-33.87006.38.16Z"
     transform="translate(-107.20664 -128.84754)"
     fill="#2f2e41"
     id="path56" />
  <circle
     cx="662.17842"
     cy="377.01184"
     r="42.76177"
     fill="#a0616a"
     id="circle58" />
  <path
     d="M804.05677,508.17083s6.93434,34.67171,19.6473,42.76178l-70.49914,83.2121-26.58164-25.42592,19.6473-34.67171s21.95875-12.713,15.02441-30.04881Z"
     transform="translate(-107.20664 -128.84754)"
     fill="#a0616a"
     id="path60" />
  <path
     d="M887.72115,623.00243a320.87478,320.87478,0,0,1-43.72,54.76c-.71-15.5-2.25-28.28-5.27-32.06a.031.031,0,0,1-.02-.01l-36.97-11.55s8.09-76.28,27.74-79.74c0,0,2.85.57995,7.28,1.92,14.28,4.3,44.93994,16.42,49.35,41.99A141.92617,141.92617,0,0,1,887.72115,623.00243Z"
     transform="translate(-107.20664 -128.84754)"
     fill="#a0616a"
     id="path62" />
  <path
     d="M746.27059,574.04708s-34.67171-1.15572-56.63046,26.58164-75.122,48.5404-75.122,48.5404L481.60988,701.17668s-24.2702-42.76177-39.2946-27.73737,27.73736,53.16329,47.38466,48.5404,138.68684-40.45033,138.68684-40.45033l94.76934-42.76178Z"
     transform="translate(-107.20664 -128.84754)"
     fill="#a0616a"
     id="path64" />
  <path
     d="M838.73116,645.70244l-4.82,41.76q-6.21,5.73-12.74,11.11c-.83.69-1.66,1.37-2.5,2.04-33.37-10.23-85.66-9.09-96.01-8.74-1.18.03-1.82.06-1.82.06l-1.15-24.27c-11.09-3.69-14.73005-11.76-14.83-20.64-.17-16.1,11.36-34.84,11.36-34.84,2.07-2.07,17.54-31.4,20.74-37.48.37-.71.58-1.1.58-1.1l13.87-3.46s-.04.11-.12.31c-1.24,3.47-12.02,34.86,6.54,35.95,18.26,1.07995,57.98-50.2,63.45-57.39.41-.54.63-.83.63-.83l15.03,8.09c-.06.02-.12.03-.18.05-9.18005,2.55-17.68005,24.66-17.68005,24.66-23.97,42.24,18.58,64.18006,19.63,64.71A.031.031,0,0,0,838.73116,645.70244Z"
     transform="translate(-107.20664 -128.84754)"
     fill="#d0cde1"
     id="path66" />
  <path
     d="M771.70821,455.66576c-22.76326,0-41.21653,10.76441-41.21653,24.043,0,5.9414,3.70925,11.37145,9.832,15.56639l7.93463-5.7492-2.15776,9.00681c.89532.41492,1.80951.8165,2.763,1.18764l11.85353-13.82916v16.98916a69.19156,69.19156,0,0,0,10.99107.87134c22.76327,0,41.21654-10.76441,41.21654-24.043S794.47148,455.66576,771.70821,455.66576Z"
     transform="translate(-107.20664 -128.84754)"
     fill="#2f2e41"
     id="path68" />
  <circle
     cx="748.93123"
     cy="315.23757"
     r="19.23438"
     fill="#2f2e41"
     id="circle70" />
  <path
     d="M835.52961,435.84181a19.234,19.234,0,0,1,17.17355-19.12068,19.42935,19.42935,0,0,0-2.06082-.1137,19.2344,19.2344,0,1,0,2.06082,38.35505A19.234,19.234,0,0,1,835.52961,435.84181Z"
     transform="translate(-107.20664 -128.84754)"
     fill="#2f2e41"
     id="path72" />
  <path
     d="M836.90349,444.08512s-2.98727,13.73884,15.67992,19.23438Z"
     transform="translate(-107.20664 -128.84754)"
     fill="#b485d6"
     id="path74" />
  <ellipse
     cx="706.67378"
     cy="373.54467"
     rx="3.33876"
     ry="7.5122"
     fill="#a0616a"
     id="ellipse76" />
  <path
     d="M445.388,531.45408l-50.67715,12.27814-.16511.03931-5.50879,4.98725-1.58554,1.43356-3.39909-.61589-6.01721-1.08759,4.19317-14.152.78622-26.99357-2.8828-16.51063,15.98648-11.00709S427.3049,477.99108,445.388,531.45408Z"
     transform="translate(-107.20664 -128.84754)"
     fill="#d0cde1"
     id="path78" />
  <path
     d="M394.71082,543.73222c-.68664,1.465.75215.49794-.03408,2.00487l-7.33805,2.35866-3.2864,1.4807-6.01721-1.08759,4.19317-14.152.78622-26.99357-2.8828-16.51063,15.98648-11.00709S413.27609,504.12505,394.71082,543.73222Z"
     transform="translate(-107.20664 -128.84754)"
     opacity="0.1"
     id="path80" />
  <path
     d="M505.14073,492.6672s-66.56667,30.92467-93.56024,35.642-24.63491,31.71089-24.63491,31.71089L538.162,536.43348S532.92052,512.06064,505.14073,492.6672Z"
     transform="translate(-107.20664 -128.84754)"
     fill="#d0cde1"
     id="path82" />
  <path
     d="M376.72471,487.42573s11.53123,28.04187-1.31037,62.89764l14.93819,6.81391,5.76562-6.81391.131-.65518-15.85545-1.44141s13.10367-35.11785,2.35866-59.49068C382.7524,488.7361,380.39374,483.49463,376.72471,487.42573Z"
     transform="translate(-107.20664 -128.84754)"
     fill="#b485d6"
     id="path84" />
  <path
     d="M596.60438,695.25C537.63784,682.14635,482.73344,709.271,482.73344,709.271l-.14938-.13366-21.86479-19.52185-85.436-139.4231,20.83484.131c57.91824-34.5937,139.4231-29.87638,139.4231-29.87638C570.6591,560.28217,596.60438,695.25,596.60438,695.25Z"
     transform="translate(-107.20664 -128.84754)"
     fill="#3f3d56"
     id="path86" />
  <path
     d="M482.58406,709.13729l-21.86479-19.52185-85.436-139.4231,20.83484.131S479.15876,659.99851,482.58406,709.13729Z"
     transform="translate(-107.20664 -128.84754)"
     opacity="0.1"
     id="path88" />
  <ellipse
     cx="485.87832"
     cy="579.80664"
     rx="33.80748"
     ry="21.49003"
     transform="translate(-255.86806 39.11836) rotate(-17.05185)"
     fill="#d0cde1"
     id="ellipse90" />
  <circle
     cx="27.79336"
     cy="277.15246"
     r="19"
     fill="#3f3d56"
     id="circle92" />
  <circle
     cx="955.79336"
     cy="642.15246"
     r="19"
     fill="#3f3d56"
     id="circle94" />
  <circle
     cx="110.79336"
     cy="279.15246"
     r="15"
     fill="#b485d6"
     id="circle96" />
  <circle
     cx="955.79336"
     cy="279.15246"
     r="15"
     fill="#b485d6"
     id="circle98" />
  <circle
     cx="27.79336"
     cy="640.15246"
     r="15"
     fill="#b485d6"
     id="circle100" />
  <path
     style="fill:#ffffff;fill-opacity:1;stroke-width:2.80149341"
     d="m 507.64128,328.20519 c -16.82333,-6.19503 -33.41633,-25.21624 -37.74779,-43.27179 -3.53108,-14.71919 -3.36551,-15.60582 11.42142,-61.16064 16.99283,-52.35063 15.95853,-51.20076 46.05462,-51.20076 21.39561,0 19.49658,-2.14248 42.23339,47.64769 19.99059,43.77638 21.66632,56.43383 10.38024,78.40588 -13.63278,26.54067 -45.36249,39.51451 -72.34188,29.57962 z m 20.06142,-63.76967 c 1.95457,-1.49505 3.97692,-1.31558 5.06795,0.44973 2.29805,3.71833 11.80735,3.83194 14.07171,0.16812 0.98447,-1.5929 -0.15058,-2.05482 -2.67184,-1.08732 -2.41088,0.92514 -6.24232,0.13932 -8.5143,-1.74626 -2.37931,-1.97465 -6.22482,-2.53559 -9.06918,-1.32292 -2.71606,1.15798 -9.6745,2.03568 -15.4632,1.95045 -5.7887,-0.0852 -9.88855,0.87468 -9.11078,2.13313 1.87567,3.0349 21.55525,2.61745 25.68964,-0.54493 z m -13.34503,-45.45006 c 3.19058,-16.84518 5.22048,-31.20818 4.51089,-31.91777 -1.89816,-1.89816 -3.45062,3.82756 -8.28236,30.54653 -4.30612,23.81232 -5.42154,35.4179 -3.18763,33.16614 0.63692,-0.64201 3.76851,-14.94971 6.9591,-31.7949 z m 25.3653,2.30926 c -6.79508,-32.03286 -7.92133,-35.99675 -9.71736,-34.20072 -0.72406,0.72406 1.24479,13.19605 4.37522,27.71553 6.72364,31.18539 8.37773,37.03951 10.00562,35.41162 0.6682,-0.6682 -1.43037,-13.6851 -4.66348,-28.92643 z"
     id="path914"
     inkscape:connector-curvature="0" />
  <path
     style="fill:#ffffff;fill-opacity:1;stroke-width:0.35018668"
     d="m 499.87322,143.90538 c -0.36467,-0.4394 -0.39957,-0.75571 -0.13056,-1.1832 0.2981,-0.4737 1.06913,-0.60218 4.09818,-0.68291 l 3.73101,-0.0994 0.77577,-1.6515 c 4.2873,-9.127 22.19332,-10.93861 29.69703,-3.00455 0.97424,1.03012 1.93657,2.3469 2.13851,2.92619 l 0.36717,1.05326 h 3.96929 c 3.76752,0 3.98157,0.0387 4.2109,0.76124 0.48627,1.53211 0.0314,1.57957 -17.44119,1.81982 -9.10043,0.12514 -19.77997,0.32501 -23.73231,0.44417 -6.51787,0.1965 -7.23234,0.16088 -7.6838,-0.38309 z"
     id="path916"
     inkscape:connector-curvature="0" />
  <path
     style="fill:#ffffff;fill-opacity:1;stroke-width:0.35018668"
     d="m 524.37323,65.973101 c 0,-58.2866286 0.0602,-65.8350974 0.52528,-65.8350974 0.46505,0 0.52528,7.5484688 0.52528,65.8350974 0,58.286629 -0.0602,65.835099 -0.52528,65.835099 -0.46506,0 -0.52528,-7.54847 -0.52528,-65.835099 z"
     id="path918"
     inkscape:connector-curvature="0" />
  <path
     style="fill:#ffffff;fill-opacity:1;stroke-width:0.35018668"
     d="m 500.47298,154.01804 c -0.59299,-0.59789 -0.26155,-1.88588 0.52528,-2.04127 1.21514,-0.23997 47.21924,-0.8742 47.78075,-0.65873 0.29605,0.1136 0.45251,0.55956 0.38887,1.10836 l -0.10649,0.91828 -8.0543,0.21524 c -16.70504,0.44643 -40.28142,0.71288 -40.53411,0.45812 z"
     id="path920"
     inkscape:connector-curvature="0" />
  <path
     style="fill:#ffffff;fill-opacity:1;stroke-width:0.35018668"
     d="m 500.68717,163.50009 c -0.49374,-1.28666 0.0451,-1.46908 5.00817,-1.69548 2.66503,-0.12156 13.60511,-0.32503 24.31128,-0.45216 18.63434,-0.22125 19.47623,-0.20384 19.71087,0.40761 0.59349,1.54661 0.17942,1.59406 -16.8006,1.92527 -25.03306,0.4883 -31.9866,0.44833 -32.22972,-0.18524 z"
     id="path922"
     inkscape:connector-curvature="0" />
  <path
     style="fill:#ffffff;fill-opacity:1;stroke-width:0.35018668"
     d="m 521.92192,332.45819 c -10.06471,-1.05016 -19.82056,-4.56554 -28.06752,-10.11372 -20.007,-13.45981 -30.14671,-37.43184 -25.87849,-61.18128 0.51551,-2.86842 3.8509,-13.33527 13.46337,-42.24965 7.02795,-21.14012 13.21585,-39.24089 13.75089,-40.22392 2.02935,-3.72859 5.55729,-5.57905 10.53937,-5.52808 l 3.06038,0.0313 -1.60672,0.44323 c -2.71349,0.74854 -5.86068,2.65531 -7.69453,4.66183 -4.03561,4.4156 -6.91573,11.01265 -13.64378,31.25173 -10.39479,31.26922 -15.47325,47.77631 -17.0223,55.3295 -0.78812,3.8429 -0.87736,4.9759 -0.73085,9.27995 0.48017,14.10698 7.69084,29.06678 19.76353,41.00288 7.91745,7.82788 15.76251,12.40171 25.48708,14.85949 23.3013,5.88916 49.2458,-4.52658 63.25907,-25.39613 4.18173,-6.22773 8.53729,-16.34595 9.79834,-22.76214 0.30131,-1.53302 0.4734,-4.68141 0.4594,-8.40448 -0.019,-5.05231 -0.16358,-6.62165 -0.95544,-10.37066 -2.24498,-10.62869 -6.77439,-22.34223 -19.0774,-49.33617 -12.18287,-26.73033 -15.4465,-32.87557 -19.66486,-37.02792 -2.12237,-2.08915 -3.9574,-3.06813 -7.08437,-3.77946 l -2.22168,-0.5054 3.32678,0.096 c 3.97306,0.11462 5.96025,0.9142 8.40448,3.38165 1.43029,1.44389 2.88342,4.46948 15.73271,32.75744 7.78627,17.14163 14.9292,32.72459 15.87315,34.62879 3.56776,7.19706 5.30917,12.43795 6.35546,19.12719 1.56591,10.01126 0.72814,19.90875 -2.47303,29.21674 -7.15313,20.79907 -25.45338,36.45665 -46.89383,40.12208 -4.71169,0.8055 -12.1307,1.11999 -16.25921,0.68921 z"
     id="path924"
     inkscape:connector-curvature="0" />
  <path
     style="fill:#ffffff;fill-opacity:1;stroke-width:0.35018668"
     d="m 519.09537,331.92938 c -20.67655,-3.22344 -38.47587,-16.72404 -46.69499,-35.4177 -3.3754,-7.67705 -4.77893,-14.13837 -5.00758,-23.05297 -0.28275,-11.02389 -0.48649,-10.24897 14.59295,-55.50459 13.44606,-40.35359 13.06595,-39.31863 15.24511,-41.50916 2.01999,-2.03051 4.36537,-2.96455 7.44408,-2.96455 h 1.93286 l -2.4171,1.20923 c -1.3294,0.66508 -2.88702,1.72254 -3.46137,2.34991 l -1.04427,1.14068 1.22566,-0.95228 c 1.99028,-1.54637 5.1785,-3.06401 7.66138,-3.64692 3.05138,-0.71639 27.20876,-1.0817 30.75004,-0.46501 4.82112,0.83956 8.37175,3.66411 12.01547,9.55838 3.11956,5.04636 11.44122,22.53837 21.44874,45.08495 6.68702,15.06561 10.80928,26.40793 12.7423,35.06018 0.87961,3.93713 0.96782,4.96374 0.95934,11.16446 -0.009,6.33311 -0.0787,7.08277 -0.96558,10.33051 -2.61411,9.57328 -8.04261,19.70996 -14.28521,26.67488 -16.00612,17.85817 -40.95479,24.82113 -62.36516,17.40561 -11.42739,-3.95791 -22.82632,-13.46687 -30.80288,-25.69569 -4.40535,-6.75383 -6.88607,-12.65225 -8.68626,-20.65339 -1.04067,-4.62533 -1.42726,-4.68859 -0.49134,-0.0804 3.84457,18.92936 19.36146,38.21347 36.68677,45.59368 18.51749,7.88805 41.1487,4.42139 58.1772,-8.91161 3.28815,-2.57455 8.75106,-8.14443 11.17701,-11.39584 5.50417,-7.37706 10.91448,-19.85337 11.83764,-27.29791 0.59847,-4.82608 0.17772,-12.7676 -0.93782,-17.70108 -1.92097,-8.49556 -5.92481,-19.48352 -12.6063,-34.59625 -1.68547,-3.81232 -2.99449,-7.00149 -2.90894,-7.08704 0.18781,-0.1878 11.40283,23.97882 13.49235,29.07392 6.39914,15.60368 5.64675,33.81906 -2.03369,49.23554 -6.70175,13.452 -18.66794,24.29637 -32.8417,29.7628 -8.56622,3.30377 -20.96947,4.67037 -29.83871,3.28767 z m -50.85138,-57.15747 c -0.0802,-0.52965 -0.14588,-0.0963 -0.14588,0.96302 0,1.05931 0.0657,1.49267 0.14588,0.96301 0.0802,-0.52966 0.0802,-1.39637 0,-1.92603 z m 1.5026,-12.58862 c 1.80567,-7.55955 7.08377,-24.48142 16.08927,-51.58309 6.54108,-19.6851 9.0887,-25.92477 12.27527,-30.06479 1.65803,-2.15411 1.68142,-2.85606 0.0286,-0.8572 -3.15932,3.82068 -6.5533,12.20826 -13.92939,34.42386 -12.27254,36.96292 -16.28623,50.97129 -16.16981,56.43506 0.0469,2.20302 0.0497,2.19627 0.3413,-0.82483 0.16169,-1.67531 0.77584,-5.06337 1.36479,-7.52901 z m 74.5825,4.91306 c 1.66247,-0.68045 2.80627,-1.82314 2.80627,-2.80353 0,-0.9593 -0.53883,-1.01991 -3.54565,-0.39886 -2.6768,0.55288 -5.04592,0.001 -7.85587,-1.82964 -2.47712,-1.61391 -5.28145,-2.29041 -7.38199,-1.78079 -0.74372,0.18043 -2.53964,0.64282 -3.99093,1.02752 -3.25809,0.86364 -9.0148,1.46421 -14.14353,1.47553 -4.11982,0.009 -6.51511,0.39491 -7.84786,1.26408 -0.78046,0.50898 -0.78996,0.56341 -0.21015,1.20409 1.3786,1.52333 8.16933,2.30276 15.03502,1.72569 5.32341,-0.44744 7.9529,-1.05985 10.7086,-2.49403 2.37587,-1.23651 3.28582,-1.12574 4.84714,0.59003 1.33074,1.46238 2.79583,2.24233 4.8962,2.60652 1.99348,0.34566 5.06344,0.0762 6.68275,-0.58661 z M 507.4886,250.78413 c 1.35241,-1.64314 9.37971,-42.60944 11.09703,-56.63225 0.68232,-5.57151 0.68668,-7.23116 0.0196,-7.48712 -1.72169,-0.66067 -3.19486,4.36031 -6.66314,22.70979 -5.43952,28.77865 -7.15035,44.68613 -4.45354,41.40958 z m 36.93899,-2.90112 c -0.25499,-7.64399 -10.303,-55.74738 -12.55394,-60.10023 -0.3889,-0.75205 -0.74898,-1.00854 -1.30483,-0.92943 -0.71425,0.10165 -0.76215,0.27676 -0.6879,2.51515 0.16126,4.86211 2.31735,16.42642 6.95098,37.28194 4.16445,18.74382 5.74936,24.06673 7.08449,23.7932 0.49809,-0.10205 0.5796,-0.51034 0.5112,-2.56063 z"
     id="path926"
     inkscape:connector-curvature="0" />
</svg>
