<?xml version="1.0" encoding="UTF-8" standalone="no"?>
<svg
   xmlns:dc="http://purl.org/dc/elements/1.1/"
   xmlns:cc="http://creativecommons.org/ns#"
   xmlns:rdf="http://www.w3.org/1999/02/22-rdf-syntax-ns#"
   xmlns:svg="http://www.w3.org/2000/svg"
   xmlns="http://www.w3.org/2000/svg"
   xmlns:sodipodi="http://sodipodi.sourceforge.net/DTD/sodipodi-0.dtd"
   xmlns:inkscape="http://www.inkscape.org/namespaces/inkscape"
   id="b7da5827-4560-4d63-9360-f6e9beb837fe"
   data-name="Layer 1"
   width="1104.46862"
   height="797.51507"
   viewBox="0 0 1104.46862 797.51507"
   version="1.1"
   sodipodi:docname="undraw_dream_world_cin1.svg"
   inkscape:version="0.92.3 (2405546, 2018-03-11)">
  <metadata
     id="metadata145">
    <rdf:RDF>
      <cc:Work
         rdf:about="">
        <dc:format>image/svg+xml</dc:format>
        <dc:type
           rdf:resource="http://purl.org/dc/dcmitype/StillImage" />
      </cc:Work>
    </rdf:RDF>
  </metadata>
  <defs
     id="defs143" />
  <sodipodi:namedview
     pagecolor="#ffffff"
     bordercolor="#666666"
     borderopacity="1"
     objecttolerance="10"
     gridtolerance="10"
     guidetolerance="10"
     inkscape:pageopacity="0"
     inkscape:pageshadow="2"
     inkscape:window-width="1920"
     inkscape:window-height="951"
     id="namedview141"
     showgrid="false"
     inkscape:zoom="1.6739716"
     inkscape:cx="775.87006"
     inkscape:cy="476.25462"
     inkscape:window-x="0"
     inkscape:window-y="27"
     inkscape:window-maximized="1"
     inkscape:current-layer="b7da5827-4560-4d63-9360-f6e9beb837fe" />
  <title
     id="title2">searching</title>
  <rect
     x="959.04901"
     y="388.46353"
     width="9.83152"
     height="388.34522"
     fill="#3f3d56"
     id="rect4" />
  <path
     d="M1107.38,489.19613c.62586,135.79464-94.91286,246.32062-94.91286,246.32062s-96.55343-109.64065-97.17929-245.4353,94.91286-246.32062,94.91286-246.32062S1106.75418,353.40148,1107.38,489.19613Z"
     transform="translate(-47.76569 -51.24247)"
     fill="#3f3d56"
     id="path6" />
  <rect
     x="767.24391"
     y="571.18561"
     width="5.05659"
     height="199.73514"
     fill="#3f3d56"
     id="rect8" />
  <path
     d="M866.73273,647.882c.3219,69.8424-48.81593,126.68852-48.81593,126.68852s-49.65971-56.39078-49.98161-126.23318,48.81593-126.68852,48.81593-126.68852S866.41084,578.03962,866.73273,647.882Z"
     transform="translate(-47.76569 -51.24247)"
     fill="#3f3d56"
     id="path10" />
  <ellipse
     cx="871.96862"
     cy="776.51507"
     rx="137"
     ry="21"
     fill="#3f3d56"
     id="ellipse12" />
  <path
     d="M931.0336,338.32371c-11.60691-19.61209-34.57027-20.5261-34.57027-20.5261s-22.37648-2.86148-36.73085,27.008c-13.37942,27.84079-31.84473,54.72165-2.97276,61.239l5.21511-16.23177,3.22969,17.4402a112.96671,112.96671,0,0,0,12.35324.21113c30.91954-.99827,60.36573.29206,59.4176-10.80317C935.715,381.91142,942.20179,357.19447,931.0336,338.32371Z"
     transform="translate(-47.76569 -51.24247)"
     fill="#2f2e41"
     id="path14" />
  <path
     d="M889.23431,375.25753s15,21,6,38,21,35,21,35l22-48s-26-17-19-33Z"
     transform="translate(-47.76569 -51.24247)"
     fill="#fbbebe"
     id="path16" />
  <circle
     cx="851.46862"
     cy="307.01507"
     r="26"
     fill="#fbbebe"
     id="circle18" />
  <path
     d="M809.25482,388.31339l21.72805-28.03376s7.6506-29.38483,18.73125-27.89516-4.3766,35.23982-4.3766,35.23982l-21.58945,31.03056Z"
     transform="translate(-47.76569 -51.24247)"
     fill="#fbbebe"
     id="path20" />
  <polygon
     points="871.469 710.015 878.469 747.015 893.469 751.015 889.469 707.015 871.469 710.015"
     fill="#fbbebe"
     id="polygon22" />
  <polygon
     points="1022.469 670.015 1049.469 707.015 1060.469 712.015 1069.469 697.015 1042.469 662.015 1022.469 670.015"
     fill="#fbbebe"
     id="polygon24" />
  <path
     d="M913.23431,432.25753l-16.6811-21.95933s-32.3189,5.95933-35.3189,8.95933,8,58,8,58,2,15,11,23l9,6,74-15,2.78246-32.9258a86.41011,86.41011,0,0,0-22.78243-66.07417l0,0-12.8758,1.76022Z"
     transform="translate(-47.76569 -51.24247)"
     fill="#575a89"
     id="path26" />
  <path
     d="M865.23431,421.25753l-5-2-23-2s-8-2-6-6,4-5,0-6-5-2-4-5,7-9,7-9l-17-14s-.9201.65081-2.4073,1.85491c-8.44043,6.83376-35.14719,31.48943-15.5927,56.14509,23,29,50,46,72,40Z"
     transform="translate(-47.76569 -51.24247)"
     fill="#575a89"
     id="path28" />
  <path
     d="M887.23431,501.25753v14s-9,17-6,33,4,24,4,24a136.53331,136.53331,0,0,0,7,40c7,20-16,151,13,153s45,4,54-6-15-182-15-182,82,171,99,164,60-23,55-32-131-209-131-209l-4-9Z"
     transform="translate(-47.76569 -51.24247)"
     fill="#2f2e41"
     id="path30" />
  <path
     d="M935.23431,791.25753s-16-1-16,4-8,22-8,22-6,20,10,18,26-20,26-20l-4-19Z"
     transform="translate(-47.76569 -51.24247)"
     fill="#2f2e41"
     id="path32" />
  <path
     d="M1102.23431,756.25753s-14-9-13-3,2,22,9,23,28,7,29,9,25,10,25-3-15-23-15-23l-17-13s-11-1-13,6S1102.23431,756.25753,1102.23431,756.25753Z"
     transform="translate(-47.76569 -51.24247)"
     fill="#2f2e41"
     id="path34" />
  <circle
     cx="851.50812"
     cy="266.65448"
     r="16.60376"
     fill="#2f2e41"
     id="circle36" />
  <path
     d="M880.92228,313.52753a16.60441,16.60441,0,0,1,14.856-16.51042,16.77219,16.77219,0,0,0-1.74776-.09334,16.60376,16.60376,0,1,0,0,33.20753,16.77219,16.77219,0,0,0,1.74776-.09334A16.60442,16.60442,0,0,1,880.92228,313.52753Z"
     transform="translate(-47.76569 -51.24247)"
     fill="#2f2e41"
     id="path38" />
  <polygon
     points="878.136 285.191 855.45 273.307 824.12 278.169 817.638 306.797 833.774 306.176 838.282 295.659 838.282 306.003 845.727 305.717 850.048 288.972 852.749 306.797 879.217 306.257 878.136 285.191"
     fill="#2f2e41"
     id="polygon40" />
  <path
     d="M924.54355,503.57426l-34.98722.94591s-29.85391,5.809-28.17895-6.24071,30.79949-7.83525,30.79949-7.83525l31.88021-4.86338Z"
     transform="translate(-47.76569 -51.24247)"
     fill="#fbbebe"
     id="path42" />
  <path
     d="M952.22557,390.5624a7.46667,7.46667,0,0,1,8.23586,5.128c6.84947,21.584,27.95077,93.81336,6.98533,103.72285-24.69358,11.67164-42.714,11.15847-42.714,11.15847l-9.64534-23.748,8.78051-8.24031,9.37441-60.27537,4.492-25.55049Z"
     transform="translate(-47.76569 -51.24247)"
     fill="#575a89"
     id="path44" />
  <polygon
     points="897.969 379.515 893.969 419.515 858.969 434.515 897.969 425.515 897.969 379.515"
     opacity="0.4"
     id="polygon46" />
  <path
     d="M756.98,298.70514h0a46.83994,46.83994,0,0,1,27.35248,19.86961l3.27083,5.06568.16459.20953L845.153,340.64134a4.18288,4.18288,0,0,1,2.86079,5.11516l-4.45513,16.335a4.18288,4.18288,0,0,1-5.16148,2.92785l-57.3995-16.04387-.00125.0016-5.76486,2.1795a51.51527,51.51527,0,0,1-33.12186,1.12567h0Z"
     transform="translate(-47.76569 -51.24247)"
     fill="#3f3d56"
     id="path48" />
  <ellipse
     cx="811.10661"
     cy="344.23329"
     rx="3.50423"
     ry="6.57042"
     transform="translate(205.17511 974.78362) rotate(-73.69006)"
     fill="#575a89"
     id="ellipse50" />
  <circle
     cx="766.71601"
     cy="294.13977"
     r="2.40916"
     fill="#3f3d56"
     id="circle52" />
  <ellipse
     cx="749.69389"
     cy="325.72758"
     rx="28.09043"
     ry="12.70282"
     transform="translate(160.84035 887.15413) rotate(-72.0342)"
     fill="#b485d6"
     id="ellipse54" />
  <path
     d="M759.99372,329.12386c4.61092-14.21979,3.35687-27.4722-2.7109-30.35509a5.89148,5.89148,0,0,1,1.07554.238c6.67348,2.164,8.20424,15.88146,3.419,30.639s-14.07438,24.96651-20.7479,22.80258a5.86342,5.86342,0,0,1-.70807-.28386C746.88566,353.00035,755.46051,343.10408,759.99372,329.12386Z"
     transform="translate(-47.76569 -51.24247)"
     opacity="0.4"
     id="path56" />
  <path
     d="M757.73431,298.75753,627.49655,197.73229a861.92171,861.92171,0,0,1-66.21511-57.3855C524.15612,104.95908,473.758,76.666,415.0802,61.6025,272.519,25.00485,159.58154,89.89694,108.21435,185.18075c-78.49457,145.60388-138.65021,381.8794,209.394,256.11011,76.11683-27.50562,153.1648-30.42932,211.58594-44.91773l211.54-43.6156Z"
     transform="translate(-47.76569 -51.24247)"
     fill="#b485d6"
     id="path58" />
  <circle
     cx="318.96862"
     cy="70.51507"
     r="7"
     fill="#f2f2f2"
     id="circle60" />
  <polygon
     points="454.949 86.695 453.127 86.695 453.127 84.873 452.771 84.873 452.771 86.695 450.949 86.695 450.949 87.051 452.771 87.051 452.771 88.873 453.127 88.873 453.127 87.051 454.949 87.051 454.949 86.695"
     fill="#f2f2f2"
     id="polygon62" />
  <polygon
     points="637.949 238.695 636.127 238.695 636.127 236.873 635.771 236.873 635.771 238.695 633.949 238.695 633.949 239.051 635.771 239.051 635.771 240.873 636.127 240.873 636.127 239.051 637.949 239.051 637.949 238.695"
     fill="#f2f2f2"
     id="polygon64" />
  <polygon
     points="624.949 285.695 623.127 285.695 623.127 283.873 622.771 283.873 622.771 285.695 620.949 285.695 620.949 286.051 622.771 286.051 622.771 287.873 623.127 287.873 623.127 286.051 624.949 286.051 624.949 285.695"
     fill="#f2f2f2"
     id="polygon66" />
  <polygon
     points="65.949 325.695 64.127 325.695 64.127 323.873 63.771 323.873 63.771 325.695 61.949 325.695 61.949 326.051 63.771 326.051 63.771 327.873 64.127 327.873 64.127 326.051 65.949 326.051 65.949 325.695"
     fill="#f2f2f2"
     id="polygon68" />
  <polygon
     points="145.949 107.695 144.127 107.695 144.127 105.873 143.771 105.873 143.771 107.695 141.949 107.695 141.949 108.051 143.771 108.051 143.771 109.873 144.127 109.873 144.127 108.051 145.949 108.051 145.949 107.695"
     fill="#f2f2f2"
     id="polygon70" />
  <polygon
     points="456.949 293.695 455.127 293.695 455.127 291.873 454.771 291.873 454.771 293.695 452.949 293.695 452.949 294.051 454.771 294.051 454.771 295.873 455.127 295.873 455.127 294.051 456.949 294.051 456.949 293.695"
     fill="#f2f2f2"
     id="polygon72" />
  <polygon
     points="265.949 43.695 264.127 43.695 264.127 41.873 263.771 41.873 263.771 43.695 261.949 43.695 261.949 44.051 263.771 44.051 263.771 45.873 264.127 45.873 264.127 44.051 265.949 44.051 265.949 43.695"
     fill="#f2f2f2"
     id="polygon74" />
  <path
     d="M314.41494,238.91546l-2.27.35c.71,4.54,1.27,9.18,1.68,13.77l2.29-.2C315.70492,248.18548,315.13492,243.50549,314.41494,238.91546Z"
     transform="translate(-47.76569 -51.24247)"
     fill="#e6e6e6"
     id="path76" />
  <path
     d="M308.20492,211.57544l-2.2.67c1.33,4.4,2.52,8.91,3.53,13.4l2.25-.51C310.75491,220.59546,309.54495,216.03546,308.20492,211.57544Z"
     transform="translate(-47.76569 -51.24247)"
     fill="#e6e6e6"
     id="path78" />
  <path
     d="M298.29495,185.35547l-2.09.96c1.92,4.19,3.72,8.49,5.35,12.79l2.15-.81C302.055,193.94543,300.245,189.58545,298.29495,185.35547Z"
     transform="translate(-47.76569 -51.24247)"
     fill="#e6e6e6"
     id="path80" />
  <path
     d="M284.89493,160.77545l-1.94,1.23c2.47,3.87994,4.84,7.9,7.04,11.93l2.02-1.1C289.79495,168.75549,287.39493,164.69543,284.89493,160.77545Z"
     transform="translate(-47.76569 -51.24247)"
     fill="#e6e6e6"
     id="path82" />
  <path
     d="M268.235,138.24548l-1.75,1.49c2.98,3.5,5.88,7.16,8.62,10.86l1.84-1.37C274.1849,145.48547,271.25491,141.78546,268.235,138.24548Z"
     transform="translate(-47.76569 -51.24247)"
     fill="#e6e6e6"
     id="path84" />
  <path
     d="M248.65493,118.18548l-1.53,1.71c3.44,3.07,6.81,6.3,10.02,9.59l1.65-1.61C255.545,124.54547,252.13492,121.28546,248.65493,118.18548Z"
     transform="translate(-47.76569 -51.24247)"
     fill="#e6e6e6"
     id="path86" />
  <path
     d="M226.53494,100.96545l-1.29,1.9c3.82,2.57,7.6,5.31,11.23,8.14l1.42-1.81006C234.21493,106.33545,230.39493,103.56549,226.53494,100.96545Z"
     transform="translate(-47.76569 -51.24247)"
     fill="#e6e6e6"
     id="path88" />
  <path
     d="M206.40493,89.00549v2.6c2.39,1.25,4.76,2.56,7.08,3.9l1.15-1.99Q210.58489,91.17544,206.40493,89.00549Z"
     transform="translate(-47.76569 -51.24247)"
     fill="#e6e6e6"
     id="path90" />
  <path
     d="M314.5699,267.22119l2.29863-.04178c.04223,2.3211.04537,4.65451.00942,6.93607l-2.29844-.03589C314.61446,271.824,314.61145,269.51646,314.5699,267.22119Z"
     transform="translate(-47.76569 -51.24247)"
     fill="#e6e6e6"
     id="path92" />
  <path
     d="M179.41494,435.91546l-2.27.35c.71,4.54,1.27,9.18,1.68,13.77l2.29-.2C180.70492,445.18548,180.13492,440.50549,179.41494,435.91546Z"
     transform="translate(-47.76569 -51.24247)"
     fill="#e6e6e6"
     id="path94" />
  <path
     d="M173.20492,408.57544l-2.2.67c1.33,4.4,2.52,8.91,3.53,13.4l2.25-.51C175.75491,417.59546,174.545,413.03546,173.20492,408.57544Z"
     transform="translate(-47.76569 -51.24247)"
     fill="#e6e6e6"
     id="path96" />
  <path
     d="M163.295,382.35547l-2.09.96c1.92,4.19,3.72,8.49,5.35,12.79l2.15-.81C167.055,390.94543,165.245,386.58545,163.295,382.35547Z"
     transform="translate(-47.76569 -51.24247)"
     fill="#e6e6e6"
     id="path98" />
  <path
     d="M149.89493,357.77545l-1.94,1.23c2.47,3.87994,4.84,7.9,7.04,11.93l2.02-1.1C154.795,365.75549,152.39493,361.69543,149.89493,357.77545Z"
     transform="translate(-47.76569 -51.24247)"
     fill="#e6e6e6"
     id="path100" />
  <path
     d="M133.235,335.24548l-1.75,1.49c2.98,3.5,5.88,7.16,8.62,10.86l1.84-1.37C139.1849,342.48547,136.25491,338.78546,133.235,335.24548Z"
     transform="translate(-47.76569 -51.24247)"
     fill="#e6e6e6"
     id="path102" />
  <path
     d="M113.65493,315.18548l-1.53,1.71c3.44,3.07,6.81,6.3,10.02,9.59l1.65-1.61C120.545,321.54547,117.13492,318.28546,113.65493,315.18548Z"
     transform="translate(-47.76569 -51.24247)"
     fill="#e6e6e6"
     id="path104" />
  <path
     d="M91.53494,297.96545l-1.29,1.9c3.81995,2.57,7.6,5.31,11.23,8.14l1.42-1.81006C99.21493,303.33545,95.39493,300.56549,91.53494,297.96545Z"
     transform="translate(-47.76569 -51.24247)"
     fill="#e6e6e6"
     id="path106" />
  <path
     d="M71.40493,286.00549v2.6c2.39,1.25,4.76,2.56,7.08,3.9l1.15-1.99Q75.58489,288.17544,71.40493,286.00549Z"
     transform="translate(-47.76569 -51.24247)"
     fill="#e6e6e6"
     id="path108" />
  <path
     d="M179.5699,464.22119l2.29863-.04178c.04223,2.3211.04537,4.65451.00942,6.93607l-2.29844-.03589C179.61446,468.824,179.61145,466.51646,179.5699,464.22119Z"
     transform="translate(-47.76569 -51.24247)"
     fill="#e6e6e6"
     id="path110" />
  <path
     d="M641.41494,336.91546l-2.27.35c.71,4.54,1.27,9.18,1.68,13.77l2.29-.2C642.70492,346.18548,642.13492,341.50549,641.41494,336.91546Z"
     transform="translate(-47.76569 -51.24247)"
     fill="#e6e6e6"
     id="path112" />
  <path
     d="M635.20492,309.57544l-2.2.67c1.33,4.4,2.52,8.91,3.53,13.4l2.25-.51C637.75491,318.59546,636.545,314.03546,635.20492,309.57544Z"
     transform="translate(-47.76569 -51.24247)"
     fill="#e6e6e6"
     id="path114" />
  <path
     d="M625.295,283.35547l-2.09.96c1.92,4.19,3.72,8.49,5.35,12.79l2.15-.81C629.055,291.94543,627.245,287.58545,625.295,283.35547Z"
     transform="translate(-47.76569 -51.24247)"
     fill="#e6e6e6"
     id="path116" />
  <path
     d="M611.89493,258.77545l-1.94,1.23c2.47,3.87994,4.84,7.9,7.04,11.93l2.02-1.1C616.795,266.75549,614.39493,262.69543,611.89493,258.77545Z"
     transform="translate(-47.76569 -51.24247)"
     fill="#e6e6e6"
     id="path118" />
  <path
     d="M595.235,236.24548l-1.75,1.49c2.98,3.5,5.88,7.16,8.62,10.86l1.84-1.37C601.1849,243.48547,598.25491,239.78546,595.235,236.24548Z"
     transform="translate(-47.76569 -51.24247)"
     fill="#e6e6e6"
     id="path120" />
  <path
     d="M575.65493,216.18548l-1.53,1.71c3.44,3.07,6.81,6.3,10.02,9.59l1.65-1.61C582.545,222.54547,579.13492,219.28546,575.65493,216.18548Z"
     transform="translate(-47.76569 -51.24247)"
     fill="#e6e6e6"
     id="path122" />
  <path
     d="M553.53494,198.96545l-1.29,1.9c3.82,2.57,7.6,5.31,11.23,8.14l1.42-1.81006C561.21493,204.33545,557.39493,201.56549,553.53494,198.96545Z"
     transform="translate(-47.76569 -51.24247)"
     fill="#e6e6e6"
     id="path124" />
  <path
     d="M533.40493,187.00549v2.6c2.39,1.25,4.76,2.56,7.08,3.9l1.15-1.99Q537.58489,189.17544,533.40493,187.00549Z"
     transform="translate(-47.76569 -51.24247)"
     fill="#e6e6e6"
     id="path126" />
  <path
     d="M641.5699,365.22119l2.29863-.04178c.04223,2.3211.04537,4.65451.00942,6.93607l-2.29844-.03589C641.61446,369.824,641.61145,367.51646,641.5699,365.22119Z"
     transform="translate(-47.76569 -51.24247)"
     fill="#e6e6e6"
     id="path128" />
  <polygon
     points="149.295 199.895 147.6 199.895 147.6 198.199 147.269 198.199 147.269 199.895 145.573 199.895 145.573 200.225 147.269 200.225 147.269 201.921 147.6 201.921 147.6 200.225 149.295 200.225 149.295 199.895"
     fill="#f2f2f2"
     id="polygon130" />
  <polygon
     points="129.754 302.252 128.059 302.252 128.059 300.556 127.728 300.556 127.728 302.252 126.032 302.252 126.032 302.583 127.728 302.583 127.728 304.278 128.059 304.278 128.059 302.583 129.754 302.583 129.754 302.252"
     fill="#f2f2f2"
     id="polygon132" />
  <polygon
     points="72.417 391.959 70.721 391.959 70.721 390.264 70.39 390.264 70.39 391.959 68.695 391.959 68.695 392.29 70.39 392.29 70.39 393.986 70.721 393.986 70.721 392.29 72.417 392.29 72.417 391.959"
     fill="#f2f2f2"
     id="polygon134" />
  <path
     d="M279.68428,329.42536a122.81116,122.81116,0,1,1,56.98177,45.75139,39.726,39.726,0,1,1-56.98177-45.75139Z"
     transform="translate(-47.76569 -51.24247)"
     fill="#3f3d56"
     id="path136" />
  <path
     d="M380.89379,190.67942c28.154,0,47.524,15.61609,47.524,38.06422,0,14.86532-7.20743,25.15092-21.09674,33.33435-13.06346,7.58282-17.493,13.13854-17.493,22.74844h0a5.93109,5.93109,0,0,1-5.9311,5.9311H369.504a5.9311,5.9311,0,0,1-5.9275-5.72432l-.02555-.73233c-1.27631-15.466,4.12926-25.07584,17.71827-33.034,12.68807-7.58282,18.01856-12.38777,18.01856-21.69736s-9.00928-16.14163-20.1958-16.14163c-8.50252,0-15.23133,4.13864-18.31771,10.8956a13.25248,13.25248,0,0,1-12.112,7.57343h0c-9.752,0-16.19427-10.37059-11.63357-18.99048C344.24307,199.27078,359.46494,190.67942,380.89379,190.67942ZM361.14844,319.362c0-8.63389,7.20743-15.46594,16.06655-15.46594,8.93421,0,16.14162,6.757,16.14162,15.46594s-7.20743,15.466-16.14163,15.466-16.06655-6.757-16.06655-15.466Z"
     transform="translate(-47.76569 -51.24247)"
     fill="#b485d6"
     id="path138" />
  <path
     style="fill:#24d000;fill-opacity:1;stroke-width:0.59738171"
     d="m 993.42374,566.69325 c -52.48175,-83.63134 -73.91819,-117.55863 -74.53896,-117.97227 -0.41287,-0.2751 -0.28564,-0.4423 0.34092,-0.44803 1.64229,-0.0151 4.63299,-2.9518 6.24443,-6.13183 4.57879,-9.0358 4.33756,-26.27289 -0.72525,-51.82334 -3.26063,-16.4554 -10.9879,-44.96492 -13.0336,-48.08705 -0.47463,-0.72437 -1.83701,-1.77926 -3.02752,-2.34419 -2.06628,-0.98052 -2.53314,-0.97029 -10.28305,0.22533 -4.46518,0.68887 -8.39363,1.42252 -8.7299,1.63034 -0.41395,0.25584 -0.48064,-3.10495 -0.2065,-10.40711 l 0.40489,-10.78498 3.50318,-8.87438 c 14.49665,-36.72343 35.75624,-74.83933 58.92762,-105.65022 3.70641,-4.9284 7.5186,-9.87574 8.47154,-10.99409 l 1.73261,-2.03337 3.60104,4.42289 c 19.20202,23.58444 40.47221,57.43337 54.66691,86.9959 31.4929,65.58806 43.6235,128.10498 36.6134,188.69105 -4.6091,39.83491 -16.7085,80.04281 -36.701,121.96245 -2.0762,4.35342 -3.9353,7.91465 -4.1314,7.91384 -0.196,-6e-4 -10.6042,-16.33173 -23.12936,-36.29094 z"
     id="path952"
     inkscape:connector-curvature="0" />
  <path
     style="fill:#009800;fill-opacity:1;stroke-width:0.59738171"
     d="m 841.16388,796.77343 c -2.29992,-0.11357 -9.4237,-0.49099 -15.83061,-0.83869 -46.87863,-2.54411 -82.33489,-9.25263 -88.66535,-16.77596 -2.0689,-2.45874 -1.95041,-3.32372 0.81577,-5.95512 2.88061,-2.74025 9.54216,-5.41456 18.77536,-7.53744 3.6563,-0.84065 7.65591,-1.77593 8.88801,-2.07839 l 2.24018,-0.54993 v -21.74977 -21.74977 l -3.0912,-4.06396 c -1.70017,-2.23518 -5.55115,-7.82747 -8.55775,-12.42731 -28.93884,-44.27399 -40.23937,-89.44883 -33.09999,-132.32004 5.17312,-31.06404 19.8287,-64.25596 41.08332,-93.04544 2.7302,-3.69807 5.21364,-6.5695 5.51873,-6.38094 1.10126,0.68062 9.62256,12.33992 14.4773,19.80862 17.78596,27.36253 28.9623,55.50691 33.3431,83.9649 1.85802,12.06987 1.86679,32.34957 0.0192,44.33946 -4.92211,31.94148 -18.67154,64.58471 -39.38719,93.51114 l -5.52644,7.71688 v 20.93383 20.93383 l 1.34411,-0.3151 c 6.85838,-1.60783 41.27241,-4.72456 62.51795,-5.66198 13.3723,-0.59003 31.71902,-0.83366 31.71902,-0.42121 0,0.10763 -1.07449,2.67304 -2.38776,5.70092 -5.34203,12.31667 -3.2819,21.36273 5.02192,22.05135 7.40961,0.61446 16.86872,-4.43216 23.83175,-12.7147 5.19468,-6.1791 5.39687,-6.69832 4.35852,-11.19288 -0.47453,-2.05406 -0.81641,-3.75703 -0.75972,-3.78437 0.36506,-0.17607 24.33809,0.99363 31.4656,1.53527 10.83803,0.82362 26.05322,2.30481 28.22629,2.74782 l 1.6428,0.33491 v -41.79665 -41.79664 l -6.58523,-8.76223 C 937.04687,647.7902 920.98415,621.69243 909.09918,597.8188 l -4.71392,-9.46899 -1.97149,-16.12931 c -1.08432,-8.87112 -2.84969,-22.71544 -3.92305,-30.76516 -1.07335,-8.04971 -1.88761,-14.70382 -1.80946,-14.7869 0.0782,-0.0831 3.04376,5.831 6.59025,13.1424 22.11296,45.58784 52.44099,101.43471 67.33814,123.99832 2.23797,3.38969 4.06904,6.42584 4.06904,6.747 0,0.32116 -1.34411,2.35945 -2.98691,4.52953 l -2.98691,3.94562 v 41.40187 41.40187 l 2.24018,0.38021 c 19.79329,3.35938 32.44765,7.37707 36.00835,11.43246 2.1712,2.47293 2.2015,3.17615 0.2368,5.51106 -6.2489,7.42635 -36.46492,13.27424 -86.87324,16.8131 -8.79131,0.61719 -70.27793,1.23983 -79.15308,0.80155 z"
     id="path954"
     inkscape:connector-curvature="0" />
  <path
     style="fill:#009800;fill-opacity:1;stroke-width:0.59738171"
     d="m 1012.1729,595.80791 c -2.4565,-3.77339 -17.31782,-27.29118 -33.02511,-52.26173 -28.30953,-45.00487 -57.00025,-90.47726 -59.08171,-93.63958 -0.9226,-1.4017 -0.94716,-1.6428 -0.16729,-1.6428 1.59502,0 5.64716,-5.27414 7.02646,-9.14544 2.04745,-5.74659 2.31341,-20.89659 0.58403,-33.26866 -2.15943,-15.44875 -6.92149,-36.42639 -12.27266,-54.06304 -2.73062,-8.99972 -3.12289,-9.80204 -5.61153,-11.4773 -2.4685,-1.6617 -3.2491,-1.67441 -12.28611,-0.20007 -3.93105,0.64134 -7.2869,1.02652 -7.45745,0.85598 -0.17055,-0.17055 -0.22483,-4.7653 -0.12062,-10.21055 l 0.18947,-9.90046 3.75076,-9.32514 c 9.52888,-23.69066 20.38756,-45.58938 33.65324,-67.86855 8.45656,-14.20245 23.57871,-36.07695 32.67773,-47.26901 l 2.49,-3.06276 2.94203,3.65999 c 20.86206,25.95307 43.03996,61.58167 56.92786,91.45398 20.1356,43.31119 30.7165,80.12922 35.4574,123.38075 1.1887,10.84492 0.9832,47.10353 -0.3301,58.24471 -3.932,33.35549 -11.3283,62.61032 -23.8785,94.44749 -4.6497,11.79517 -10.7377,25.70367 -14.6844,33.5475 l -2.3172,4.60542 z"
     id="path956"
     inkscape:connector-curvature="0" />
</svg>
