<?xml version="1.0" encoding="UTF-8" standalone="no"?>
<svg
   xmlns:dc="http://purl.org/dc/elements/1.1/"
   xmlns:cc="http://creativecommons.org/ns#"
   xmlns:rdf="http://www.w3.org/1999/02/22-rdf-syntax-ns#"
   xmlns:svg="http://www.w3.org/2000/svg"
   xmlns="http://www.w3.org/2000/svg"
   xmlns:sodipodi="http://sodipodi.sourceforge.net/DTD/sodipodi-0.dtd"
   xmlns:inkscape="http://www.inkscape.org/namespaces/inkscape"
   id="b6fe4ea4-91cd-4e88-acbb-2663d3326f54"
   data-name="Layer 1"
   width="1013.02965"
   height="844.99456"
   viewBox="0 0 1013.02965 844.99456"
   version="1.1"
   sodipodi:docname="undraw_new_ideas_jdea.svg"
   inkscape:version="0.92.3 (2405546, 2018-03-11)">
  <metadata
     id="metadata79">
    <rdf:RDF>
      <cc:Work
         rdf:about="">
        <dc:format>image/svg+xml</dc:format>
        <dc:type
           rdf:resource="http://purl.org/dc/dcmitype/StillImage" />
        <dc:title>new_ideas</dc:title>
      </cc:Work>
    </rdf:RDF>
  </metadata>
  <defs
     id="defs77" />
  <sodipodi:namedview
     pagecolor="#ffffff"
     bordercolor="#666666"
     borderopacity="1"
     objecttolerance="10"
     gridtolerance="10"
     guidetolerance="10"
     inkscape:pageopacity="0"
     inkscape:pageshadow="2"
     inkscape:window-width="1920"
     inkscape:window-height="951"
     id="namedview75"
     showgrid="false"
     inkscape:zoom="1.1171669"
     inkscape:cx="454.33232"
     inkscape:cy="347.31645"
     inkscape:window-x="0"
     inkscape:window-y="27"
     inkscape:window-maximized="1"
     inkscape:current-layer="b6fe4ea4-91cd-4e88-acbb-2663d3326f54" />
  <title
     id="title2">new_ideas</title>
  <path
     d="M1050.48389,297.81272c0,35.17-8.33,64.12-22.7799,88.92a177.67758,177.67758,0,0,1-16.19,23.25c-53.12,64.97-151.88,100.53-241.14,158.13-263.48,170.02-292.02-102.42-280.12-270.3,4.8-67.74,31.18-129.79,73.09-177.3a278.22062,278.22062,0,0,1,28.45-27.97c47.58-40.52,109.05-65.04,178.58-65.04,119.29,0,221.16,71.95,261.55,173.34a261.84957,261.84957,0,0,1,18.55993,96.97Z"
     transform="translate(-93.48517 -27.50272)"
     fill="#b485d6"
     id="path4" />
  <path
     d="M830.054,88.4227l-266.71,32.09a278.22062,278.22062,0,0,1,28.45-27.97Z"
     transform="translate(-93.48517 -27.50272)"
     fill="#d0cde1"
     id="path6" />
  <path
     d="M1027.704,386.7327a177.67758,177.67758,0,0,1-16.19,23.25l-228.46-27.48Z"
     transform="translate(-93.48517 -27.50272)"
     fill="#d0cde1"
     id="path8" />
  <path
     d="M1041.2439,228.72269l-387.18994-50.22,377.87,22.34A260.439,260.439,0,0,1,1041.2439,228.72269Z"
     transform="translate(-93.48517 -27.50272)"
     fill="#d0cde1"
     id="path10" />
  <path
     d="M516.51853,99.50486c0,.69-.02,1.37-.08,2.04a27.99706,27.99706,0,1,1-52.68-15.11,25.73956,25.73956,0,0,1,2.06-3.31,27.9889,27.9889,0,0,1,50.6,14.1C516.4885,97.97483,516.51853,98.73484,516.51853,99.50486Z"
     transform="translate(-93.48517 -27.50272)"
     fill="#b485d6"
     id="path12" />
  <path
     d="M516.51853,99.50486c0,.69-.02,1.37-.08,2.04l-41.92-5.04,41.9.72C516.4885,97.97483,516.51853,98.73484,516.51853,99.50486Z"
     transform="translate(-93.48517 -27.50272)"
     fill="#d0cde1"
     id="path14" />
  <path
     d="M506.51853,113.61484l-38.78,4.67a28.05694,28.05694,0,0,1-2.96-3.95Z"
     transform="translate(-93.48517 -27.50272)"
     fill="#d0cde1"
     id="path16" />
  <path
     d="M495.51853,82.61484l-31.76,3.82a25.73956,25.73956,0,0,1,2.06-3.31Z"
     transform="translate(-93.48517 -27.50272)"
     fill="#d0cde1"
     id="path18" />
  <path
     d="M900.25143,603.63055c-.32346.60949-.65991,1.20075-1.027,1.76443a27.99706,27.99706,0,1,1-39.45-38.042,25.73938,25.73938,0,0,1,3.37127-1.9581,27.98891,27.98891,0,0,1,38.08621,36.17477C900.94214,602.265,900.61239,602.95037,900.25143,603.63055Z"
     transform="translate(-93.48517 -27.50272)"
     fill="#b485d6"
     id="path20" />
  <path
     d="M900.25143,603.63055c-.32346.60949-.65991,1.20075-1.027,1.76443L864.5584,581.29206l36.67354,20.27763C900.94214,602.265,900.61239,602.95037,900.25143,603.63055Z"
     transform="translate(-93.48517 -27.50272)"
     fill="#d0cde1"
     id="path22" />
  <path
     d="M884.80385,611.4064l-36.44426-14.054a28.05745,28.05745,0,0,1-.76292-4.87668Z"
     transform="translate(-93.48517 -27.50272)"
     fill="#d0cde1"
     id="path24" />
  <path
     d="M889.61936,578.867l-29.8449-11.514a25.73938,25.73938,0,0,1,3.37127-1.9581Z"
     transform="translate(-93.48517 -27.50272)"
     fill="#d0cde1"
     id="path26" />
  <path
     d="M1098.56381,120.95526c.48176.494.9422.99477,1.367,1.5163a27.99707,27.99707,0,1,1-48.26355,25.96387,25.73851,25.73851,0,0,1-.83628-3.80793,27.9889,27.9889,0,0,1,46.06931-25.23471C1097.47405,119.88088,1098.02619,120.404,1098.56381,120.95526Z"
     transform="translate(-93.48517 -27.50272)"
     fill="#b485d6"
     id="path28" />
  <path
     d="M1098.56381,120.95526c.48176.494.9422.99477,1.367,1.5163l-33.52955,25.66038,30.499-28.73915C1097.47405,119.88088,1098.02619,120.404,1098.56381,120.95526Z"
     transform="translate(-93.48517 -27.50272)"
     fill="#d0cde1"
     id="path30" />
  <path
     d="M1101.25637,138.03864l-24.50216,30.41946a28.0572,28.0572,0,0,1-4.87694-.76118Z"
     transform="translate(-93.48517 -27.50272)"
     fill="#d0cde1"
     id="path32" />
  <path
     d="M1071.73725,123.52584l-20.07,24.90959a25.73851,25.73851,0,0,1-.83628-3.80793Z"
     transform="translate(-93.48517 -27.50272)"
     fill="#d0cde1"
     id="path34" />
  <path
     d="M573.26553,636.95591s61.44557,2.56024,61.44557,17.92163-69.12627,0-69.12627,0Z"
     transform="translate(-93.48517 -27.50272)"
     fill="#a0616a"
     id="path36" />
  <path
     d="M481.09717,872.49728l-115.21045-7.6807L360.76625,803.371l-25.60232,53.76488-112.65022-15.3614c2.56023-97.28882,43.524-192.01741,46.08418-204.81858s8.67923-65.69564,8.67923-65.69564c11.1882-23.73325,69.81727-25.96064,115.77362-23.81013,19.04829.87055,35.94576,2.509,46.36577,3.68674,6.88688.768,10.95787,1.33137,10.95787,1.33137,18.35667,18.92015,30.18524,44.70155,37.45621,73.50417C514.04734,729.73871,481.09717,872.49728,481.09717,872.49728Z"
     transform="translate(-93.48517 -27.50272)"
     fill="#2f2e41"
     id="path38" />
  <circle
     cx="259.60038"
     cy="187.01487"
     r="64.00581"
     fill="#a0616a"
     id="circle40" />
  <path
     d="M309.56161,229.879S291.64,309.24619,263.47743,332.28828s110.09,0,110.09,0-30.72278-51.20465-7.68069-74.24674S309.56161,229.879,309.56161,229.879Z"
     transform="translate(-93.48517 -27.50272)"
     fill="#a0616a"
     id="path42" />
  <path
     d="M440.13345,557.58871,397.659,562.29945,278.83882,575.51034s-.56318-1.51061-1.5617-4.25007c-8.628-23.52854-50.18049-138.022-54.76341-172.406-5.12046-38.40349,48.64441-84.48767,48.64441-84.48767s51.20465-10.24093,66.566-10.24093,76.807,23.04209,76.807,23.04209l22.914,206.12433,1.97143,17.84474Z"
     transform="translate(-93.48517 -27.50272)"
     fill="#d0cde1"
     id="path44" />
  <path
     d="M487.83059,625.97242,401.73,575.51034s-1.51076-4.91576-4.071-13.21089c-1.28011-4.14756-2.8415-9.16551-4.60823-14.84931-9.93371-31.90055-26.60085-84.53892-39.96518-122.9935-20.48186-58.88534,79.36719,104.96952,79.36719,104.96952l4.99233,3.866,1.97143,17.84474c6.88688.768,10.95787,1.33137,10.95787,1.33137C468.73105,571.3884,480.55962,597.1698,487.83059,625.97242Z"
     transform="translate(-93.48517 -27.50272)"
     opacity="0.15"
     id="path46" />
  <path
     d="M373.56741,332.28828s-25.60232,33.283-5.12046,92.16836,48.64441,151.0537,48.64441,151.0537l148.49347,87.0479,20.48186-25.60233L447.81415,529.42616s-5.12047-194.57765-30.72279-202.25835S373.56741,332.28828,373.56741,332.28828Z"
     transform="translate(-93.48517 -27.50272)"
     fill="#d0cde1"
     id="path48" />
  <path
     d="M246.83592,556.3086s35.84325,74.24673,51.20464,66.566S259.63708,538.387,259.63708,538.387Z"
     transform="translate(-93.48517 -27.50272)"
     fill="#a0616a"
     id="path50" />
  <path
     d="M242.99557,352.77013,107.30326,465.42035s-51.20464,35.84326,43.524,61.44558S253.2365,567.82964,253.2365,567.82964s10.24093-33.283,23.04209-28.16255l-110.09-53.76488,89.60813-53.76488Z"
     transform="translate(-93.48517 -27.50272)"
     fill="#d0cde1"
     id="path52" />
  <path
     d="M188.45949,267.05154c7.12167-3.52691,22.84789-10.64479,36.24333-19.2202-.93932-27.89762,2.49607-53.22261,12.55222-66.64662,5.64462-12.81652,17.49793-25.6481,26.7814-35.75325,22.798-24.81537,73.20958-38.66708,82.15062-26.26844,67.62534,1.33509,74.74468,54.34307,74.74468,54.34307-.3518,22.17187-23.39557,22.87345-43.58176,22.0655,1.80765,15.13647-3.00971,30.86424-16.95952,37.83915-26.676,13.338-34.67888,30.67741-21.34081,42.68173s37.3465,44.01548,5.33523,52.01821-36.01275,24.00854-26.676,30.67752S296.36792,346.784,296.36792,346.784s-5.33512,32.01127-33.345,24.00842c-2.51013-.71721-5.01892-2.55489-7.48541-5.30331-7.56478,8.312-14.31345,13.22658-19.39967,13.25359-29.13026.15447-25.63705-32.10971-25.63705-32.10971s-34.57609,9.71049-23.7871,5.80578,11.25117-20.39647-17.4169-36.73375S172.37879,275.015,188.45949,267.05154Z"
     transform="translate(-93.48517 -27.50272)"
     fill="#2f2e41"
     id="path54" />
  <path
     d="M545.869,350.68362l-.46437-.06122,1.13287,4.30643a113.17562,113.17562,0,0,0,4.65,17.67685L584.41385,498.9135a21.40811,21.40811,0,0,0,17.43077,15.71007l67.75971,10.48261a21.408,21.408,0,0,0,22.1461-11.05183l64.39386-120.27626a113.00339,113.00339,0,0,0,5.50835-10.28834l2.18627-4.08367-.34094-.04495a113.84725,113.84725,0,1,0-217.629-28.67751Z"
     transform="translate(-93.48517 -27.50272)"
     fill="#3f3d56"
     id="path56" />
  <path
     d="M673.7627,533.3584a23.29759,23.29759,0,0,1-3.56446-.27442l-70.82763-10.958a23.3712,23.3712,0,0,1-19.03418-17.15528L545.606,372.94482a119.05567,119.05567,0,0,1-4.87793-18.55615l-.87842-5.77588A120.02561,120.02561,0,0,1,677.24219,214.74951l-.30664,1.97656a118.0685,118.0685,0,0,0-134.93116,132.9126l.6753,4.32031a118.2809,118.2809,0,0,0,4.83691,18.39991l34.7544,132.103a21.36975,21.36975,0,0,0,17.40527,15.6875l70.82764,10.958a21.407,21.407,0,0,0,22.11425-11.03613l1.76368.94336A23.42072,23.42072,0,0,1,673.7627,533.3584Z"
     transform="translate(-93.48517 -27.50272)"
     fill="#d0cde1"
     id="path58" />
  <rect
     x="608.73851"
     y="437.37967"
     width="125.31395"
     height="2.58676"
     transform="translate(-64.90222 890.7514) rotate(-69.88499)"
     fill="#d0cde1"
     id="rect60" />
  <rect
     x="621.52776"
     y="368.50149"
     width="2.58676"
     height="125.31395"
     transform="translate(-111.81076 0.25189) rotate(-2.51583)"
     fill="#d0cde1"
     id="rect62" />
  <path
     d="M667.77507,593.21348l-90.75733-14.04041a2.587,2.587,0,0,1,.791-5.11309l90.75733,14.04041a2.587,2.587,0,1,1-.791,5.11309Z"
     transform="translate(-93.48517 -27.50272)"
     fill="#3f3d56"
     id="path64" />
  <path
     d="M670.10222,573.94052l-90.75733-14.04041a2.587,2.587,0,1,1,.791-5.11309l90.75734,14.04041a2.587,2.587,0,1,1-.791,5.11309Z"
     transform="translate(-93.48517 -27.50272)"
     fill="#3f3d56"
     id="path66" />
  <path
     d="M672.42937,554.66756,581.672,540.62715a2.587,2.587,0,0,1,.791-5.11309l90.75733,14.04041a2.587,2.587,0,0,1-.791,5.11309Z"
     transform="translate(-93.48517 -27.50272)"
     fill="#3f3d56"
     id="path68" />
  <path
     d="M619.57535,604.42863c18.00222,2.785,34.1481-4.99048,36.06278-17.367l-65.19188-10.08536C588.53156,589.35278,601.57312,601.64364,619.57535,604.42863Z"
     transform="translate(-93.48517 -27.50272)"
     fill="#3f3d56"
     id="path70" />
  <path
     d="M652.19879,354.60221c-3.87236-.59843-7.07617-3.65939-8.83264-5.711-.57595-.67259-1.1365-1.37029-1.69874-2.06952-2.04551-2.54625-3.97681-4.95084-6.66642-6.20478-5.93686-2.76991-12.93209,1.099-18.98864,5.24984l-1.46325-2.13343c6.65876-4.56514,14.42362-8.78213,21.54579-5.46138,3.23493,1.50894,5.44871,4.26464,7.58906,6.92909.545.67867,1.089,1.35527,1.64693,2.00782,1.82636,2.13272,5.46883,5.58876,9.37174,4.79166a12.5979,12.5979,0,0,0,4.49545-2.37986,24.07683,24.07683,0,0,1,3.18135-2.00734,12.66906,12.66906,0,0,1,13.90684,1.96545,25.02449,25.02449,0,0,1,1.88717,1.99578c1.16372,1.32656,2.26229,2.5785,3.69247,3.03366,2.11435.676,4.349-.53253,6.71686-1.80932,2.442-1.31774,4.96637-2.68088,7.8299-2.34462.09286.01117.18677.02378.27915.03807,5.09561.78831,7.44484,6.42363,8.77412,10.62937l-2.46725.7789c-1.80618-5.71683-4.00582-8.55982-6.889-8.87675-2.05123-.24128-4.114.87246-6.298,2.05116-2.7378,1.4784-5.57148,3.00651-8.7311,1.99813-2.11483-.67292-3.5069-2.2585-4.852-3.79208a22.79725,22.79725,0,0,0-1.68845-1.79311,10.16528,10.16528,0,0,0-11.01236-1.55665,21.837,21.837,0,0,0-2.83631,1.80124,14.69665,14.69665,0,0,1-5.46961,2.80242A8.504,8.504,0,0,1,652.19879,354.60221Z"
     transform="translate(-93.48517 -27.50272)"
     fill="#d0cde1"
     id="path72" />
  <path
     style="fill:#ffffff;stroke-width:3.58048534"
     d="m 536.23286,490.26218 c -19.79487,-3.22179 -34.45612,-7.5659 -38.01034,-11.26243 -3.18229,-3.30969 -15.03917,-41.45544 -26.34863,-84.76832 -17.4501,-66.83025 -20.22107,-81.65707 -18.30602,-97.95121 4.68226,-39.83868 29.90291,-74.66271 66.11454,-91.28925 25.74363,-11.82017 67.49047,-10.82348 94.10571,2.24675 46.62146,22.89488 72.951,77.32103 60.78287,125.64505 -4.03981,16.04355 -71.44596,145.22539 -81.97712,157.10666 -6.47734,7.30776 -12.94518,7.33906 -56.36101,0.27275 z m 44.50745,-78.62977 c 12.07916,-32.75771 21.10461,-60.41696 20.05657,-61.465 -2.84084,-2.84084 -3.24066,-1.97732 -17.90615,38.67331 -7.45972,20.6773 -17.31201,47.66521 -21.89396,59.97313 -4.58195,12.30792 -6.95556,22.37804 -5.27468,22.37804 1.68087,0 12.93907,-26.80177 25.01822,-59.55948 z m -48.21463,-5.78438 c -1.37214,-33.96986 -3.96841,-63.34347 -5.7695,-65.27468 -3.07164,-3.29357 -0.71641,112.13057 2.50089,122.56244 4.4906,14.56048 5.47433,-2.68099 3.26861,-57.28776 z m 80.68762,-73.85666 c 0,-5.80578 -9.77726,-11.32513 -15.89991,-8.97564 -3.33635,1.28027 -10.08487,0.17698 -14.99672,-2.45176 -6.8204,-3.65016 -10.47622,-3.81429 -15.47164,-0.6946 -5.3022,3.31128 -8.71895,2.47811 -18.04062,-4.3992 -11.72266,-8.6487 -24.8168,-8.04972 -27.92586,1.27745 -1.06747,3.20242 0.81558,3.19344 7.90712,-0.0377 8.07334,-3.67846 10.43675,-3.18097 17.81424,3.74983 6.83263,6.41892 10.97126,7.52846 21.03746,5.64003 7.9515,-1.49171 13.46021,-0.8482 15.07263,1.76074 1.54369,2.49776 6.62356,3.21501 12.94173,1.82731 6.46792,-1.42061 10.4006,-0.82294 10.4006,1.58061 0,2.12573 1.61122,3.86497 3.58048,3.86497 1.96927,0 3.58049,-1.41393 3.58049,-3.14207 z"
     id="path3784"
     inkscape:connector-curvature="0" />
  <path
     style="fill:#ffffff;stroke-width:0.89512134"
     d="m 532.77974,519.71568 c -24.449,-3.83601 -44.89134,-7.24564 -45.42741,-7.57695 -1.32128,-0.81659 -1.23343,-2.89354 0.14423,-3.41002 1.59901,-0.59946 92.16294,13.48593 93.1673,14.49029 1.24077,1.24076 -0.005,3.65262 -1.83683,3.55566 -0.877,-0.0464 -21.59828,-3.22297 -46.04729,-7.05898 z"
     id="path3786"
     inkscape:connector-curvature="0" />
  <path
     style="fill:#ffffff;stroke-width:0.89512134"
     d="m 528.89593,538.77351 c -23.63121,-3.69159 -43.45477,-7.17763 -44.05236,-7.74675 -0.67391,-0.6418 -0.79026,-1.51396 -0.30638,-2.29662 0.65505,-1.05951 8.12479,-0.13421 46.58348,5.77046 25.19183,3.86777 46.43779,7.49624 47.21322,8.06325 2.14534,1.56871 0.52892,3.10296 -3.16826,3.0072 -1.81714,-0.0471 -22.6385,-3.10595 -46.2697,-6.79754 z"
     id="path3788"
     inkscape:connector-curvature="0" />
  <path
     style="fill:#ffffff;stroke-width:0.89512134"
     d="m 521.51178,575.65882 c -11.15698,-3.13738 -18.66872,-8.7806 -22.57058,-16.95622 l -2.70976,-5.6778 -5.15067,-0.61751 c -7.79491,-0.93453 -9.17872,-1.41267 -9.17872,-3.17145 0,-0.87859 0.50351,-1.77591 1.11891,-1.99405 0.98279,-0.34836 24.90948,3.18893 77.50728,11.45857 10.82978,1.7027 15.66735,2.82378 16.00726,3.70958 1.00178,2.61059 -1.13509,3.13492 -8.15858,2.00191 l -6.81402,-1.09922 -3.52589,4.00563 c -5.35407,6.08254 -12.58824,8.98807 -23.31371,9.36372 -5.63352,0.19731 -10.10198,-0.14875 -13.21152,-1.02316 z"
     id="path3790"
     inkscape:connector-curvature="0" />
</svg>
